<svg width="50" height="55" viewBox="0 0 50 55" fill="none" xmlns="http://www.w3.org/2000/svg">
<path id="home icon" d="M27.8625 1.13893C27.0889 0.407526 26.0646 0 25 0C23.9354 0 22.9111 0.407526 22.1375 1.13893L1.95417 20.2139C1.33618 20.7987 0.844092 21.5036 0.508069 22.2852C0.172046 23.0669 -0.000839883 23.9089 3.06772e-06 24.7598V47.9681C0.00110766 49.625 0.660075 51.2136 1.83206 52.3848C3.00404 53.556 4.59312 54.2139 6.25 54.2139H12.5C14.1576 54.2139 15.7473 53.5554 16.9194 52.3833C18.0915 51.2112 18.75 49.6215 18.75 47.9639V37.5473C18.75 36.9947 18.9695 36.4648 19.3602 36.0741C19.7509 35.6834 20.2808 35.4639 20.8333 35.4639H29.1667C29.7192 35.4639 30.2491 35.6834 30.6398 36.0741C31.0305 36.4648 31.25 36.9947 31.25 37.5473V47.9639C31.25 49.6215 31.9085 51.2112 33.0806 52.3833C34.2527 53.5554 35.8424 54.2139 37.5 54.2139H43.75C45.4076 54.2139 46.9973 53.5554 48.1694 52.3833C49.3415 51.2112 50 49.6215 50 47.9639V24.7556C49.9997 23.9052 49.8259 23.0637 49.4892 22.2828C49.1525 21.5019 48.6599 20.7979 48.0417 20.2139L27.8625 1.13893Z" fill="black"/>
</svg>
