<svg width="55" height="55" viewBox="0 0 55 55" fill="none" xmlns="http://www.w3.org/2000/svg">
<path id="info icon" d="M24.3945 40.6575H29.8155V24.3945H24.3945V40.6575ZM27.105 18.9735C27.873 18.9735 28.5172 18.7133 29.0376 18.1929C29.558 17.6725 29.8173 17.0292 29.8155 16.263C29.8137 15.4968 29.5535 14.8535 29.0349 14.3331C28.5163 13.8127 27.873 13.5525 27.105 13.5525C26.337 13.5525 25.6937 13.8127 25.1751 14.3331C24.6565 14.8535 24.3963 15.4968 24.3945 16.263C24.3927 17.0292 24.6529 17.6734 25.1751 18.1956C25.6973 18.7178 26.3406 18.9771 27.105 18.9735ZM27.105 54.21C23.3555 54.21 19.8318 53.498 16.534 52.0741C13.2363 50.6502 10.3677 48.7194 7.92821 46.2818C5.48876 43.8441 3.55799 40.9755 2.13588 37.6759C0.713768 34.3764 0.00181043 30.8527 3.43101e-06 27.105C-0.00180357 23.3573 0.710154 19.8336 2.13588 16.534C3.5616 13.2345 5.49238 10.3659 7.92821 7.92821C10.364 5.49057 13.2327 3.55979 16.534 2.13587C19.8354 0.711958 23.3591 0 27.105 0C30.8509 0 34.3745 0.711958 37.6759 2.13587C40.9773 3.55979 43.8459 5.49057 46.2818 7.92821C48.7176 10.3659 50.6493 13.2345 52.0768 16.534C53.5044 19.8336 54.2154 23.3573 54.21 27.105C54.2046 30.8527 53.4926 34.3764 52.0741 37.6759C50.6556 40.9755 48.7248 43.8441 46.2818 46.2818C43.8387 48.7194 40.9701 50.6511 37.6759 52.0768C34.3818 53.5025 30.8581 54.2136 27.105 54.21Z" fill="black"/>
</svg>
