<svg width="78" height="55" viewBox="0 0 78 55" fill="none" xmlns="http://www.w3.org/2000/svg">
<path id="team icon" d="M11.6164 23.2329C15.8879 23.2329 19.3607 19.76 19.3607 15.4886C19.3607 11.2171 15.8879 7.74429 11.6164 7.74429C7.34497 7.74429 3.87214 11.2171 3.87214 15.4886C3.87214 19.76 7.34497 23.2329 11.6164 23.2329ZM65.8264 23.2329C70.0979 23.2329 73.5707 19.76 73.5707 15.4886C73.5707 11.2171 70.0979 7.74429 65.8264 7.74429C61.555 7.74429 58.0821 11.2171 58.0821 15.4886C58.0821 19.76 61.555 23.2329 65.8264 23.2329ZM69.6986 27.105H61.9543C59.8246 27.105 57.9006 27.9641 56.497 29.3557C61.3735 32.0299 64.8342 36.858 65.5844 42.5936H73.5707C75.7125 42.5936 77.4429 40.8632 77.4429 38.7214V34.8493C77.4429 30.5778 73.97 27.105 69.6986 27.105ZM38.7214 27.105C46.2116 27.105 52.2739 21.0427 52.2739 13.5525C52.2739 6.06232 46.2116 0 38.7214 0C31.2313 0 25.1689 6.06232 25.1689 13.5525C25.1689 21.0427 31.2313 27.105 38.7214 27.105ZM48.0146 30.9771H47.0102C44.4933 32.1872 41.6981 32.9132 38.7214 32.9132C35.7447 32.9132 32.9616 32.1872 30.4326 30.9771H29.4283C21.7324 30.9771 15.4886 37.221 15.4886 44.9169V48.4018C15.4886 51.6084 18.0902 54.21 21.2968 54.21H56.1461C59.3527 54.21 61.9543 51.6084 61.9543 48.4018V44.9169C61.9543 37.221 55.7105 30.9771 48.0146 30.9771ZM20.9459 29.3557C19.5422 27.9641 17.6182 27.105 15.4886 27.105H7.74429C3.47283 27.105 0 30.5778 0 34.8493V38.7214C0 40.8632 1.73036 42.5936 3.87214 42.5936H11.8463C12.6087 36.858 16.0694 32.0299 20.9459 29.3557Z" fill="black"/>
</svg>
