<svg width="2620" height="702" viewBox="0 0 2620 702" fill="none" xmlns="http://www.w3.org/2000/svg">
<path d="M342.41 0C369.17 0 390.863 21.6934 390.863 48.4535C390.863 63.5537 383.328 75.7086 373.959 85.9174C358.131 103.164 348.472 126.162 348.472 151.417C348.472 177.395 358.707 200.984 375.349 218.384C384.807 228.272 390.863 240.093 390.863 254.381C390.863 281.141 369.17 302.834 342.41 302.834C315.65 302.834 293.956 281.141 293.956 254.381C293.956 238.028 296.86 233.117 312.812 214.734C312.772 214.712 312.853 214.757 312.812 214.734C327.488 197.751 336.359 175.62 336.359 151.417C336.359 127.209 327.488 105.077 312.812 88.0941C302.923 78.8079 293.956 64.8027 293.956 48.4535C293.956 21.6934 315.65 0 342.41 0Z" fill="url(#paint0_linear_1586_904)"/>
<path d="M445.374 102.964C461.819 102.964 476.555 110.25 486.546 121.768C492.352 128.461 496.939 136.16 502.109 143.356C525.484 175.897 539.252 215.8 539.252 258.923C539.252 368.471 450.443 457.28 340.896 457.28C231.348 457.28 142.539 368.471 142.539 258.923C142.539 207.115 162.408 159.956 194.932 124.629C198.094 120.226 201.908 116.422 206.241 113.285C206.378 113.158 206.513 113.03 206.65 112.903C206.662 112.891 206.684 112.898 206.688 112.915C206.692 112.931 206.711 112.938 206.724 112.928C215.837 106.492 227.167 102.964 239.446 102.964C269.551 102.964 293.956 127.369 293.956 157.474C293.956 168.846 291.094 178.791 286.141 186.971C284.192 190.191 281.108 193.26 278.247 196.116C276.828 197.533 275.455 198.997 274.132 200.504C274.111 200.527 274.088 200.549 274.064 200.568C273.884 200.711 273.712 200.864 273.531 201.005C273.501 201.028 273.504 201.074 273.537 201.093C273.565 201.11 273.572 201.148 273.55 201.173C273.515 201.214 273.479 201.255 273.444 201.296C271.866 203.135 270.36 205.036 268.931 206.998C268.825 207.143 268.722 207.29 268.618 207.436C268.094 208.164 267.577 208.898 267.074 209.642L266.459 210.565C266.396 210.66 266.338 210.759 266.275 210.854C265.646 211.818 265.035 212.794 264.442 213.782C264.377 213.891 264.311 213.999 264.247 214.107C263.683 215.056 263.138 216.017 262.608 216.988C262.468 217.244 262.326 217.499 262.188 217.757C261.687 218.697 261.202 219.648 260.733 220.608C260.663 220.752 260.59 220.895 260.52 221.04C260.017 222.084 259.541 223.144 259.077 224.21C259.007 224.37 258.933 224.528 258.864 224.689C258.403 225.766 257.966 226.856 257.545 227.954C257.477 228.132 257.405 228.308 257.338 228.486C256.934 229.563 256.549 230.649 256.185 231.745C256.109 231.973 256.04 232.203 255.966 232.431C255.606 233.545 255.261 234.665 254.943 235.797C254.216 238.382 253.607 241.014 253.109 243.687C253.06 243.951 253.008 244.215 252.961 244.48C252.849 245.111 252.741 245.743 252.642 246.378C252.601 246.644 252.563 246.91 252.524 247.177C252.471 247.537 252.418 247.898 252.37 248.259C252.313 248.684 252.261 249.11 252.21 249.537C252.192 249.687 252.174 249.836 252.157 249.986C252.093 250.545 252.033 251.105 251.979 251.666C251.946 252.016 251.914 252.367 251.885 252.719C251.854 253.083 251.828 253.448 251.802 253.813C251.644 256.001 251.559 258.21 251.559 260.438C251.56 280.82 258.27 299.637 269.605 314.794C270.477 315.96 271.377 317.103 272.302 318.225C276.007 322.713 280.134 326.841 284.623 330.545C285.744 331.47 286.888 332.37 288.053 333.242C303.211 344.577 322.028 351.288 342.41 351.288C362.792 351.288 381.609 344.577 396.766 333.242C397.932 332.37 399.075 331.47 400.197 330.545C404.686 326.841 408.813 322.713 412.517 318.225C413.443 317.103 414.343 315.96 415.214 314.794C426.549 299.637 433.26 280.82 433.26 260.438C433.26 258.96 433.217 257.491 433.148 256.031C433.134 255.735 433.117 255.439 433.1 255.144C433.031 253.937 432.939 252.736 432.822 251.542C432.772 251.022 432.722 250.503 432.663 249.986C432.644 249.826 432.623 249.667 432.604 249.507C432.549 249.055 432.493 248.603 432.432 248.153C432.39 247.84 432.341 247.529 432.296 247.218C432.25 246.904 432.209 246.59 432.16 246.278C432.066 245.676 431.964 245.077 431.858 244.48C431.821 244.269 431.785 244.057 431.746 243.847C431.707 243.635 431.662 243.425 431.622 243.214C431.267 241.366 430.862 239.537 430.397 237.731C430.046 236.367 429.662 235.017 429.25 233.679C425.375 221.088 418.837 209.665 410.294 200.065C405.178 194.318 399.303 189.062 396.057 182.086C392.728 174.932 390.863 166.667 390.863 157.474C390.863 127.369 415.268 102.964 445.374 102.964Z" fill="url(#paint1_linear_1586_904)"/>
<path d="M0 84.771C0 78.1283 2.02969 72.7774 6.08906 68.718C10.1484 64.6586 15.4994 62.6289 22.142 62.6289H60.8906C67.5332 62.6289 72.8842 64.6586 76.9436 68.718C81.003 72.7774 83.0326 78.1283 83.0326 84.771V220.391C83.0326 227.034 81.003 232.385 76.9436 236.444C72.8842 240.503 67.5332 242.533 60.8906 242.533H22.142C15.4994 242.533 10.1484 240.503 6.08906 236.444C2.02969 232.385 0 227.034 0 220.391V84.771ZM0 292.353C0 285.71 2.02969 280.359 6.08906 276.3C10.1484 272.24 15.4994 270.211 22.142 270.211H60.8906C67.5332 270.211 72.8842 272.24 76.9436 276.3C81.003 280.359 83.0326 285.71 83.0326 292.353V427.973C83.0326 434.615 81.003 439.966 76.9436 444.026C72.8842 448.085 67.5332 450.115 60.8906 450.115H22.142C15.4994 450.115 10.1484 448.085 6.08906 444.026C2.02969 439.966 0 434.615 0 427.973V292.353Z" fill="white"/>
<path d="M826.209 62.6293C832.851 62.6293 838.202 64.659 842.262 68.7184C846.321 72.7778 848.351 78.1288 848.351 84.7714V117.984C848.351 124.627 846.321 129.978 842.262 134.037C838.202 138.097 832.851 140.126 826.209 140.126H577.111C570.468 140.126 565.117 138.097 561.058 134.037C556.998 129.978 554.969 124.627 554.969 117.984V84.7714C554.969 78.1288 556.998 72.7778 561.058 68.7184C565.117 64.659 570.468 62.6293 577.111 62.6293H826.209ZM660.143 189.946C660.143 183.303 662.173 177.952 666.233 173.893C670.292 169.834 675.643 167.804 682.285 167.804H721.034C727.677 167.804 733.028 169.834 737.087 173.893C741.146 177.952 743.176 183.303 743.176 189.946V427.973C743.176 434.616 741.146 439.967 737.087 444.026C733.028 448.085 727.677 450.115 721.034 450.115H682.285C675.643 450.115 670.292 448.085 666.233 444.026C662.173 439.967 660.143 434.616 660.143 427.973V189.946Z" fill="white"/>
<path d="M1009.05 258.586C1009.05 251.944 1010.9 246.593 1014.59 242.533C1018.28 238.474 1023.26 236.444 1029.53 236.444H1075.48C1096.15 236.444 1110.72 231.831 1119.21 222.606C1128.07 213.38 1132.5 201.94 1132.5 188.285C1132.5 175 1128.07 163.745 1119.21 154.519C1110.72 144.924 1095.96 140.126 1074.93 140.126H1029.53C1023.26 140.126 1018.28 138.097 1014.59 134.037C1010.9 129.978 1009.05 124.627 1009.05 117.984V84.7714C1009.05 78.1288 1010.9 72.7778 1014.59 68.7184C1018.65 64.659 1023.81 62.6293 1030.09 62.6293H1077.14C1122.53 62.6293 1157.41 73.5158 1181.76 95.2888C1206.12 116.693 1218.3 147.692 1218.3 188.285C1218.3 228.51 1206.12 259.509 1181.76 281.282C1157.77 303.055 1122.9 313.941 1077.14 313.941H1030.09C1023.81 313.941 1018.65 311.912 1014.59 307.852C1010.9 303.793 1009.05 298.442 1009.05 291.799V258.586ZM898.343 84.7714C898.343 78.1288 900.373 72.7778 904.432 68.7184C908.492 64.659 913.843 62.6293 920.485 62.6293H959.234C965.877 62.6293 971.228 64.659 975.287 68.7184C979.346 72.7778 981.376 78.1288 981.376 84.7714V427.973C981.376 434.616 979.346 439.967 975.287 444.026C971.228 448.085 965.877 450.115 959.234 450.115H920.485C913.843 450.115 908.492 448.085 904.432 444.026C900.373 439.967 898.343 434.616 898.343 427.973V84.7714ZM1155.74 338.851C1162.39 338.851 1168.48 340.696 1174.01 344.387C1179.92 348.077 1183.79 353.059 1185.64 359.333L1207.22 424.652C1209.81 432.032 1209.07 438.121 1205.01 442.919C1201.32 447.716 1196.15 450.115 1189.51 450.115H1143.57C1136.92 450.115 1131.39 447.716 1126.96 442.919C1122.9 438.121 1119.58 432.032 1117 424.652L1095.41 359.333C1093.56 353.059 1093.75 348.077 1095.96 344.387C1098.54 340.696 1103.16 338.851 1109.8 338.851H1155.74Z" fill="white"/>
<path d="M1273.76 84.7714C1273.76 78.1288 1275.79 72.7778 1279.85 68.7184C1283.91 64.659 1289.26 62.6293 1295.91 62.6293H1334.65C1341.3 62.6293 1346.65 64.659 1350.71 68.7184C1354.77 72.7778 1356.8 78.1288 1356.8 84.7714V220.391C1356.8 227.034 1354.77 232.385 1350.71 236.444C1346.65 240.504 1341.3 242.533 1334.65 242.533H1295.91C1289.26 242.533 1283.91 240.504 1279.85 236.444C1275.79 232.385 1273.76 227.034 1273.76 220.391V84.7714ZM1273.76 292.353C1273.76 285.71 1275.79 280.359 1279.85 276.3C1283.91 272.241 1289.26 270.211 1295.91 270.211H1334.65C1341.3 270.211 1346.65 272.241 1350.71 276.3C1354.77 280.359 1356.8 285.71 1356.8 292.353V427.973C1356.8 434.616 1354.77 439.967 1350.71 444.026C1346.65 448.085 1341.3 450.115 1334.65 450.115H1295.91C1289.26 450.115 1283.91 448.085 1279.85 444.026C1275.79 439.967 1273.76 434.616 1273.76 427.973V292.353Z" fill="white"/>
<path d="M1561.06 139.019C1551.83 141.603 1543.34 145.662 1535.59 151.197C1527.84 156.364 1521.2 163.56 1515.67 172.786C1510.13 181.643 1505.7 192.898 1502.38 206.553C1499.43 220.207 1497.95 236.629 1497.95 255.819C1497.95 285.341 1503.86 309.882 1515.67 329.441C1527.84 349 1543.16 362.654 1561.61 370.404C1575.63 376.677 1582.64 386.088 1582.64 398.635V435.723C1582.64 442.734 1580.43 447.901 1576 451.222C1571.94 454.912 1566.78 456.204 1560.5 455.097C1540.21 451.038 1521.02 444.026 1502.93 434.062C1484.85 423.729 1468.98 410.444 1455.33 394.206C1442.04 377.6 1431.53 357.857 1423.78 334.976C1416.03 311.727 1412.15 285.526 1412.15 256.372C1412.15 222.052 1416.03 192.898 1423.78 168.911C1431.53 144.555 1442.04 124.443 1455.33 108.574C1468.61 92.7056 1484.3 80.712 1502.38 72.5932C1520.46 64.1055 1539.84 58.57 1560.5 55.9867C1566.78 55.2487 1571.94 56.9093 1576 60.9687C1580.43 64.659 1582.64 69.8255 1582.64 76.4681V113.002C1582.64 126.288 1575.45 134.96 1561.06 139.019ZM1610.32 77.0217C1610.32 70.3791 1612.35 65.2126 1616.41 61.5222C1620.84 57.8319 1626.19 56.3558 1632.46 57.0938C1675.27 62.6293 1707.75 77.2062 1729.89 100.824C1752.4 124.073 1763.66 154.703 1763.66 192.714C1763.66 198.987 1762 204.338 1758.67 208.767C1755.35 212.826 1750.37 214.856 1743.73 214.856H1702.21C1695.94 214.856 1690.03 213.195 1684.5 209.874C1679.33 206.184 1676.75 200.648 1676.75 193.267C1676.75 177.399 1672.69 165.221 1664.57 156.733C1656.82 147.876 1646.12 141.787 1632.46 138.466C1617.7 134.775 1610.32 126.288 1610.32 113.002V77.0217ZM1610.32 399.188C1610.32 385.534 1617.7 377.231 1632.46 374.279C1646.86 371.326 1658.3 365.606 1666.78 357.118C1675.64 348.262 1680.07 335.53 1680.07 318.923C1680.07 311.543 1682.65 306.192 1687.82 302.87C1693.36 299.18 1699.26 297.335 1705.53 297.335H1747.05C1753.69 297.335 1758.67 299.549 1762 303.978C1765.32 308.037 1766.98 313.203 1766.98 319.477C1766.98 357.487 1755.54 388.671 1732.66 413.027C1709.78 437.014 1676.38 451.591 1632.46 456.758C1626.19 457.496 1620.84 455.835 1616.41 451.776C1612.35 448.085 1610.32 442.919 1610.32 436.276V399.188Z" fill="white"/>
<path d="M1822.43 84.7714C1822.43 78.1288 1824.46 72.7778 1828.52 68.7184C1832.58 64.659 1837.93 62.6293 1844.57 62.6293H1883.32C1889.96 62.6293 1895.31 64.659 1899.37 68.7184C1903.43 72.7778 1905.46 78.1288 1905.46 84.7714V220.391C1905.46 227.034 1903.43 232.385 1899.37 236.444C1895.31 240.504 1889.96 242.533 1883.32 242.533H1844.57C1837.93 242.533 1832.58 240.504 1828.52 236.444C1824.46 232.385 1822.43 227.034 1822.43 220.391V84.7714ZM1822.43 292.353C1822.43 285.71 1824.46 280.359 1828.52 276.3C1832.58 272.241 1837.93 270.211 1844.57 270.211H1883.32C1889.96 270.211 1895.31 272.241 1899.37 276.3C1903.43 280.359 1905.46 285.71 1905.46 292.353V427.973C1905.46 434.616 1903.43 439.967 1899.37 444.026C1895.31 448.085 1889.96 450.115 1883.32 450.115H1844.57C1837.93 450.115 1832.58 448.085 1828.52 444.026C1824.46 439.967 1822.43 434.616 1822.43 427.973V292.353Z" fill="white"/>
<path d="M2226.52 62.6293C2233.16 62.6293 2238.51 64.659 2242.57 68.7184C2246.63 72.7778 2248.66 78.1288 2248.66 84.7714V117.984C2248.66 124.627 2246.63 129.978 2242.57 134.037C2238.51 138.097 2233.16 140.126 2226.52 140.126H1977.42C1970.78 140.126 1965.43 138.097 1961.37 134.037C1957.31 129.978 1955.28 124.627 1955.28 117.984V84.7714C1955.28 78.1288 1957.31 72.7778 1961.37 68.7184C1965.43 64.659 1970.78 62.6293 1977.42 62.6293H2226.52ZM2060.45 189.946C2060.45 183.303 2062.48 177.952 2066.54 173.893C2070.6 169.834 2075.95 167.804 2082.6 167.804H2121.35C2127.99 167.804 2133.34 169.834 2137.4 173.893C2141.46 177.952 2143.49 183.303 2143.49 189.946V427.973C2143.49 434.616 2141.46 439.967 2137.4 444.026C2133.34 448.085 2127.99 450.115 2121.35 450.115H2082.6C2075.95 450.115 2070.6 448.085 2066.54 444.026C2062.48 439.967 2060.45 434.616 2060.45 427.973V189.946Z" fill="white"/>
<path d="M2274.85 81.4501C2271.16 75.9146 2270.24 71.4861 2272.08 68.1648C2274.3 64.4745 2278.73 62.6293 2285.37 62.6293H2339.06C2345.71 62.6293 2351.98 64.4745 2357.88 68.1648C2364.16 71.4861 2369.14 75.9146 2372.83 81.4501L2445.35 197.696L2517.86 81.4501C2521.55 75.9146 2526.35 71.4861 2532.25 68.1648C2538.53 64.4745 2544.98 62.6293 2551.63 62.6293H2605.32C2611.96 62.6293 2616.21 64.4745 2618.05 68.1648C2620.27 71.4861 2619.53 75.9146 2615.84 81.4501L2498.49 269.104C2494.8 274.639 2489.81 279.252 2483.54 282.943C2477.64 286.264 2471.36 287.925 2464.72 287.925H2425.97C2419.33 287.925 2412.87 286.264 2406.6 282.943C2400.69 279.252 2395.89 274.639 2392.2 269.104L2274.85 81.4501ZM2486.86 427.973C2486.86 434.616 2484.83 439.967 2480.77 444.026C2476.71 448.085 2471.36 450.115 2464.72 450.115H2425.97C2419.33 450.115 2413.98 448.085 2409.92 444.026C2405.86 439.967 2403.83 434.616 2403.83 427.973V337.744C2403.83 331.102 2405.86 325.751 2409.92 321.691C2413.98 317.632 2419.33 315.602 2425.97 315.602H2464.72C2471.36 315.602 2476.71 317.632 2480.77 321.691C2484.83 325.751 2486.86 331.102 2486.86 337.744V427.973Z" fill="white"/>
<rect x="2617.37" y="699.224" width="691.463" height="166.294" rx="43.8228" transform="rotate(-180 2617.37 699.224)" fill="#5B289E"/>
<rect x="2617.37" y="699.224" width="691.463" height="166.294" rx="43.8228" transform="rotate(-180 2617.37 699.224)" stroke="white" stroke-width="4.61292"/>
<path d="M2044.48 655.401C2039.12 655.401 2034.32 654.531 2030.07 652.79C2025.82 651.049 2022.41 648.473 2019.83 645.061C2017.33 641.649 2016 637.541 2015.86 632.736H2034.87C2035.15 635.452 2036.09 637.541 2037.69 639.003C2039.29 640.396 2041.38 641.092 2043.96 641.092C2046.61 641.092 2048.69 640.5 2050.23 639.317C2051.76 638.063 2052.52 636.357 2052.52 634.199C2052.52 632.388 2051.9 630.891 2050.64 629.708C2049.46 628.524 2047.96 627.549 2046.15 626.783C2044.41 626.017 2041.91 625.147 2038.63 624.172C2033.9 622.71 2030.03 621.247 2027.04 619.785C2024.04 618.323 2021.47 616.164 2019.31 613.309C2017.15 610.454 2016.07 606.729 2016.07 602.134C2016.07 595.31 2018.54 589.983 2023.49 586.153C2028.43 582.254 2034.87 580.304 2042.81 580.304C2050.89 580.304 2057.4 582.254 2062.34 586.153C2067.29 589.983 2069.93 595.344 2070.28 602.238H2050.96C2050.82 599.871 2049.95 598.025 2048.35 596.702C2046.74 595.31 2044.69 594.613 2042.18 594.613C2040.03 594.613 2038.28 595.205 2036.96 596.389C2035.64 597.503 2034.98 599.139 2034.98 601.298C2034.98 603.665 2036.09 605.511 2038.32 606.834C2040.55 608.157 2044.03 609.584 2048.76 611.116C2053.5 612.717 2057.33 614.249 2060.25 615.712C2063.25 617.174 2065.82 619.298 2067.98 622.083C2070.14 624.868 2071.22 628.454 2071.22 632.841C2071.22 637.019 2070.14 640.814 2067.98 644.226C2065.89 647.638 2062.83 650.353 2058.79 652.372C2054.75 654.392 2049.98 655.401 2044.48 655.401Z" fill="white"/>
<path d="M2102.16 595.658V610.489H2126.08V624.276H2102.16V640.361H2129.21V654.67H2084.3V581.349H2129.21V595.658H2102.16Z" fill="white"/>
<path d="M2188.54 641.719H2161.18L2156.79 654.67H2138.09L2164.62 581.349H2185.3L2211.83 654.67H2192.93L2188.54 641.719ZM2183.94 627.932L2174.86 601.089L2165.88 627.932H2183.94Z" fill="white"/>
<path d="M2248.52 655.401C2243.16 655.401 2238.36 654.531 2234.11 652.79C2229.86 651.049 2226.45 648.473 2223.87 645.061C2221.37 641.649 2220.05 637.541 2219.91 632.736H2238.92C2239.19 635.452 2240.13 637.541 2241.74 639.003C2243.34 640.396 2245.43 641.092 2248 641.092C2250.65 641.092 2252.74 640.5 2254.27 639.317C2255.8 638.063 2256.57 636.357 2256.57 634.199C2256.57 632.388 2255.94 630.891 2254.69 629.708C2253.5 628.524 2252.01 627.549 2250.2 626.783C2248.45 626.017 2245.95 625.147 2242.68 624.172C2237.94 622.71 2234.08 621.247 2231.08 619.785C2228.09 618.323 2225.51 616.164 2223.35 613.309C2221.19 610.454 2220.11 606.729 2220.11 602.134C2220.11 595.31 2222.59 589.983 2227.53 586.153C2232.47 582.254 2238.92 580.304 2246.85 580.304C2254.93 580.304 2261.44 582.254 2266.38 586.153C2271.33 589.983 2273.97 595.344 2274.32 602.238H2255C2254.86 599.871 2253.99 598.025 2252.39 596.702C2250.79 595.31 2248.73 594.613 2246.23 594.613C2244.07 594.613 2242.33 595.205 2241 596.389C2239.68 597.503 2239.02 599.139 2239.02 601.298C2239.02 603.665 2240.13 605.511 2242.36 606.834C2244.59 608.157 2248.07 609.584 2252.81 611.116C2257.54 612.717 2261.37 614.249 2264.3 615.712C2267.29 617.174 2269.87 619.298 2272.02 622.083C2274.18 624.868 2275.26 628.454 2275.26 632.841C2275.26 637.019 2274.18 640.814 2272.02 644.226C2269.94 647.638 2266.87 650.353 2262.83 652.372C2258.8 654.392 2254.03 655.401 2248.52 655.401Z" fill="white"/>
<path d="M2323.02 655.401C2316.13 655.401 2309.79 653.8 2304.01 650.597C2298.3 647.394 2293.74 642.937 2290.33 637.228C2286.99 631.448 2285.31 624.973 2285.31 617.801C2285.31 610.629 2286.99 604.188 2290.33 598.478C2293.74 592.768 2298.3 588.312 2304.01 585.109C2309.79 581.906 2316.13 580.304 2323.02 580.304C2329.91 580.304 2336.21 581.906 2341.92 585.109C2347.7 588.312 2352.23 592.768 2355.5 598.478C2358.84 604.188 2360.52 610.629 2360.52 617.801C2360.52 624.973 2358.84 631.448 2355.5 637.228C2352.16 642.937 2347.63 647.394 2341.92 650.597C2336.21 653.8 2329.91 655.401 2323.02 655.401ZM2323.02 639.108C2328.87 639.108 2333.53 637.158 2337.02 633.259C2340.57 629.359 2342.34 624.207 2342.34 617.801C2342.34 611.325 2340.57 606.172 2337.02 602.342C2333.53 598.443 2328.87 596.493 2323.02 596.493C2317.1 596.493 2312.37 598.408 2308.81 602.238C2305.33 606.068 2303.59 611.255 2303.59 617.801C2303.59 624.276 2305.33 629.464 2308.81 633.363C2312.37 637.193 2317.1 639.108 2323.02 639.108Z" fill="white"/>
<path d="M2438.13 654.67H2420.27L2390.4 609.445V654.67H2372.54V581.349H2390.4L2420.27 626.783V581.349H2438.13V654.67Z" fill="white"/>
<path d="M2474.99 640.361C2477.36 638.481 2478.44 637.611 2478.23 637.75C2485.05 632.11 2490.41 627.479 2494.31 623.858C2498.28 620.238 2501.62 616.443 2504.34 612.474C2507.05 608.505 2508.41 604.64 2508.41 600.88C2508.41 598.025 2507.75 595.797 2506.43 594.196C2505.11 592.594 2503.12 591.793 2500.47 591.793C2497.83 591.793 2495.74 592.803 2494.21 594.822C2492.75 596.772 2492.01 599.557 2492.01 603.178H2474.78C2474.92 597.259 2476.17 592.316 2478.54 588.347C2480.98 584.378 2484.15 581.453 2488.05 579.573C2492.01 577.693 2496.4 576.753 2501.21 576.753C2509.49 576.753 2515.72 578.877 2519.9 583.124C2524.15 587.372 2526.27 592.907 2526.27 599.731C2526.27 607.182 2523.73 614.11 2518.65 620.516C2513.57 626.853 2507.09 633.05 2499.22 639.108H2527.42V653.626H2474.99V640.361Z" fill="white"/>
<defs>
<linearGradient id="paint0_linear_1586_904" x1="142.539" y1="228.64" x2="1074" y2="229" gradientUnits="userSpaceOnUse">
<stop stop-color="#8B06F9"/>
<stop offset="0.887556" stop-color="#D806F9"/>
<stop offset="1" stop-color="#D806F9"/>
</linearGradient>
<linearGradient id="paint1_linear_1586_904" x1="142.539" y1="228.64" x2="1074" y2="229" gradientUnits="userSpaceOnUse">
<stop stop-color="#8B06F9"/>
<stop offset="0.887556" stop-color="#D806F9"/>
<stop offset="1" stop-color="#D806F9"/>
</linearGradient>
</defs>
</svg>
