<svg width="2661" height="836" viewBox="0 0 2661 836" fill="none" xmlns="http://www.w3.org/2000/svg">
<g filter="url(#filter0_di_1624_6585)">
<path d="M110.612 512.991C110.612 523.597 102.014 532.195 91.4082 532.195H40.2042C29.598 532.195 21 523.597 21 512.991V103.023C21 92.4172 29.598 83.8192 40.2042 83.8192H91.4083C102.014 83.8192 110.612 92.4172 110.612 103.023V512.991Z" fill="white"/>
<path d="M1912.32 520.443C1912.32 531.05 1903.73 539.648 1893.12 539.648H1840.36C1829.75 539.648 1821.16 531.05 1821.16 520.443V103.338C1821.16 92.7321 1829.75 84.1341 1840.36 84.1341H1893.12C1903.73 84.1341 1912.32 92.7321 1912.32 103.338V520.443Z" fill="white"/>
<path d="M1355.65 518.623C1355.65 529.23 1347.06 537.828 1336.45 537.828H1283.7C1273.09 537.828 1264.49 529.23 1264.49 518.623V101.518C1264.49 90.9121 1273.09 82.3141 1283.7 82.3141H1336.45C1347.06 82.3141 1355.65 90.9121 1355.65 101.518V518.623Z" fill="white"/>
<path d="M2147.59 531.261C2147.59 534.674 2145.34 536.393 2140.91 536.393H2067.91C2063.76 536.393 2061.7 534.675 2061.7 531.261V267.183C2061.7 256.577 2070.3 247.979 2080.91 247.979H2128.38C2138.99 247.979 2147.59 256.577 2147.59 267.183V531.261Z" fill="white"/>
<path d="M2374.95 83.9739C2376.63 83.9741 2378 84.2244 2379.08 84.7124C2380.15 85.1959 2380.88 86.1652 2381.56 87.12L2472.44 214.768C2480.08 225.495 2496 225.528 2503.68 214.833L2529.79 178.483C2533.4 173.461 2539.21 170.483 2545.39 170.483H2603.45C2619.06 170.483 2628.15 188.103 2619.1 200.818L2535.21 318.774C2532.9 322.025 2531.65 325.916 2531.65 329.905V531.261C2531.65 534.675 2529.52 536.393 2525.29 536.393H2451.36C2447.09 536.393 2444.99 534.675 2444.99 531.261V329.818C2444.99 325.883 2443.78 322.042 2441.53 318.817C2415.51 281.657 2389.22 244.711 2362.68 207.91C2335.04 169.392 2307.43 130.956 2279.9 92.5207C2278.46 90.6577 2278.31 88.7926 2279.44 86.9296C2280.56 84.9917 2282.62 83.9742 2285.65 83.9739H2374.95Z" fill="white"/>
<path d="M802.297 531.836C802.297 533.894 800.627 535.564 798.569 535.564H716.567C714.509 535.564 712.839 533.894 712.839 531.836V286.396C712.839 275.789 721.437 267.191 732.043 267.191H783.092C793.699 267.191 802.297 275.789 802.297 286.396V531.836Z" fill="white"/>
<path d="M1043.81 82.3141C1049.08 82.3143 1057.55 82.7875 1069.28 83.7191C1080.96 84.6512 1094.05 87.2462 1108.57 91.4724C1123.17 95.6321 1137.14 102.427 1150.5 111.82C1163.85 121.258 1174.88 134.464 1183.58 151.431C1192.28 168.323 1196.63 190.183 1196.63 216.973C1196.63 239.955 1192.82 259.485 1185.29 275.52C1177.72 291.473 1167.62 304.567 1155.01 314.817C1147.74 320.659 1140.06 325.759 1131.99 330.115C1122.23 335.377 1117.21 347.127 1121.79 357.22C1133.44 382.874 1145.23 408.296 1157.17 433.461C1172.08 464.756 1186.53 496.055 1200.51 527.425C1201.21 529.287 1201.13 531 1200.2 532.55C1199.26 534.026 1197.64 534.734 1195.38 534.734H1114.63C1111.52 534.734 1109.58 533.601 1108.87 531.305L1031.56 363.268C1028.42 356.456 1021.61 352.091 1014.11 352.091H996.848C986.242 352.091 977.644 360.689 977.644 371.296V529.601C977.644 533.014 975.547 534.733 971.434 534.734H897.345C893.618 534.734 891.754 533.015 891.754 529.601V288.201C891.754 277.595 900.352 268.997 910.958 268.997H1043.81C1048.34 268.997 1054.4 268.65 1061.98 267.912C1069.51 267.1 1076.96 265.041 1084.34 261.702C1091.68 258.28 1097.89 253.114 1102.98 246.159C1108.02 239.138 1110.58 229.39 1110.58 216.973C1110.58 204.546 1107.83 194.755 1102.35 187.613C1096.84 180.391 1090.16 175.152 1082.32 171.932C1074.44 168.749 1066.87 166.654 1059.65 165.722C1052.51 164.79 1047.22 164.317 1043.81 164.317H642.586C631.98 164.317 623.382 155.719 623.382 145.112V101.518C623.382 90.9121 631.98 82.3141 642.586 82.3141H1043.81Z" fill="white"/>
<path d="M1752.32 82.3141C1756.44 82.315 1758.53 84.0257 1758.53 87.4465V245.752C1758.53 256.358 1749.94 264.956 1739.33 264.956H1691.23C1680.62 264.956 1672.02 256.358 1672.02 245.752V183.081C1672.02 172.897 1664.07 164.401 1653.89 164.473C1628.28 164.654 1604.97 168.495 1583.97 175.972C1558.19 185.209 1537.84 200.659 1522.93 222.404C1508.09 244.067 1500.72 272.797 1500.72 308.593C1500.72 336.473 1504.77 359.457 1512.84 377.55C1520.91 395.687 1531.63 409.818 1544.98 419.956C1558.41 430.124 1572.86 437.579 1588.32 442.321C1603.73 446.979 1618.79 449.775 1633.51 450.707C1648.18 451.639 1661.04 451.945 1672.02 451.639H1739.33C1749.94 451.639 1758.53 460.237 1758.53 470.843V529.601C1758.53 533.015 1756.44 534.733 1752.32 534.734H1678.86C1656.18 534.734 1632.57 533.016 1608.04 529.601C1583.57 526.187 1559.89 519.895 1536.91 510.651C1513.92 501.452 1493.04 488.44 1474.32 471.667C1455.68 454.894 1440.85 433.272 1429.9 406.757C1419.03 380.159 1413.59 347.425 1413.59 308.593C1413.59 268.644 1419.11 235.096 1430.22 207.953C1441.4 180.738 1456.31 158.844 1474.95 142.265C1493.58 125.724 1514.47 113.065 1537.68 104.365C1560.87 95.6737 1584.62 89.8471 1608.97 86.8131C1633.27 83.8238 1656.57 82.3141 1678.86 82.3141H1752.32Z" fill="white"/>
<path d="M2234.1 83.9739C2238.21 83.9749 2240.31 85.6856 2240.31 89.1063V156.345C2240.31 159.766 2238.21 161.476 2234.1 161.477H1974.58C1970.42 161.477 1968.36 159.767 1968.36 156.345V89.1063C1968.36 85.6847 1970.42 83.974 1974.58 83.9739H2234.1Z" fill="white"/>
<path d="M392.283 0.311401C425.221 0.311401 451.922 27.0124 451.922 59.9497C451.922 78.5356 442.647 93.4962 431.115 106.062C411.634 127.289 399.745 155.596 399.745 186.681C399.745 218.656 412.343 247.69 432.826 269.106C444.467 281.277 451.922 295.827 451.922 313.412C451.922 346.35 425.221 373.051 392.283 373.051C359.346 373.051 332.645 346.35 332.645 313.412C332.645 293.284 336.22 287.241 355.854 264.614C355.804 264.586 355.904 264.642 355.854 264.614C373.917 243.711 384.836 216.47 384.836 186.681C384.836 156.913 373.938 129.697 355.906 108.801C355.879 108.77 355.887 108.721 355.923 108.699C355.96 108.676 355.967 108.623 355.935 108.592C343.788 97.1627 332.645 80.037 332.645 59.9497C332.645 27.0124 359.346 0.311401 392.283 0.311401Z" fill="url(#paint0_linear_1624_6585)"/>
<path d="M519.015 127.043C539.256 127.043 557.394 136.011 569.691 150.187C576.837 158.426 582.484 167.902 588.846 176.759C617.618 216.811 634.564 265.925 634.564 319.004C634.564 453.838 525.254 563.148 390.42 563.148C255.585 563.148 146.275 453.838 146.275 319.004C146.275 255.236 170.731 197.191 210.762 153.71C214.654 148.29 219.348 143.608 224.682 139.746C224.85 139.591 225.016 139.432 225.185 139.277C225.201 139.262 225.227 139.27 225.232 139.291C225.237 139.31 225.26 139.319 225.276 139.307C236.493 131.385 250.439 127.043 265.552 127.043C302.606 127.043 332.645 157.081 332.645 194.136C332.645 208.133 329.122 220.374 323.026 230.442C320.627 234.405 316.831 238.182 313.309 241.699C311.563 243.442 309.874 245.244 308.244 247.099C308.219 247.127 308.191 247.154 308.16 247.178C307.939 247.354 307.727 247.542 307.504 247.716C307.468 247.744 307.472 247.801 307.512 247.824C307.547 247.844 307.555 247.891 307.529 247.922C307.485 247.973 307.441 248.023 307.398 248.074C305.456 250.337 303.602 252.677 301.843 255.092C301.713 255.27 301.586 255.451 301.457 255.631C300.812 256.527 300.176 257.43 299.557 258.346L298.8 259.482C298.723 259.599 298.651 259.721 298.574 259.838C297.8 261.025 297.047 262.225 296.318 263.442C296.237 263.576 296.157 263.709 296.077 263.842C295.384 265.01 294.713 266.193 294.061 267.388C293.889 267.703 293.713 268.017 293.544 268.334C292.927 269.492 292.33 270.662 291.753 271.843C291.666 272.021 291.577 272.197 291.491 272.375C290.871 273.66 290.286 274.964 289.714 276.277C289.629 276.474 289.537 276.669 289.452 276.866C288.884 278.192 288.347 279.533 287.829 280.885C287.745 281.104 287.657 281.321 287.574 281.54C287.076 282.866 286.603 284.203 286.155 285.552C286.061 285.832 285.976 286.115 285.885 286.396C285.442 287.766 285.017 289.146 284.626 290.538C283.731 293.72 282.982 296.96 282.369 300.25C282.308 300.575 282.245 300.9 282.187 301.226C282.049 302.002 281.915 302.781 281.794 303.563C281.743 303.89 281.696 304.217 281.648 304.545C281.583 304.989 281.518 305.433 281.459 305.878C281.389 306.401 281.325 306.925 281.262 307.45C281.24 307.634 281.218 307.819 281.197 308.003C281.118 308.691 281.045 309.38 280.978 310.071C280.937 310.502 280.898 310.934 280.862 311.367C280.824 311.815 280.792 312.264 280.76 312.714C280.566 315.406 280.462 318.125 280.462 320.867C280.462 345.954 288.721 369.115 302.673 387.771C303.746 389.206 304.854 390.613 305.993 391.993C310.552 397.518 315.632 402.598 321.157 407.158C322.537 408.297 323.945 409.405 325.38 410.478C344.036 424.429 367.196 432.689 392.283 432.689C417.371 432.689 440.531 424.429 459.187 410.478C460.622 409.405 462.029 408.297 463.41 407.158C468.935 402.598 474.015 397.518 478.574 391.993C479.713 390.613 480.821 389.206 481.894 387.771C495.845 369.115 504.105 345.954 504.105 320.867C504.105 319.049 504.053 317.241 503.967 315.444C503.949 315.079 503.929 314.715 503.909 314.352C503.823 312.866 503.709 311.388 503.566 309.918C503.504 309.278 503.443 308.64 503.37 308.003C503.347 307.806 503.321 307.61 503.297 307.414C503.23 306.857 503.161 306.301 503.086 305.747C503.034 305.362 502.974 304.979 502.918 304.596C502.862 304.21 502.811 303.824 502.751 303.439C502.635 302.698 502.51 301.961 502.38 301.226C502.334 300.966 502.289 300.706 502.241 300.447C502.193 300.186 502.138 299.927 502.089 299.668C501.652 297.393 501.154 295.142 500.582 292.919C500.15 291.241 499.676 289.579 499.169 287.932C494.399 272.434 486.353 258.374 475.837 246.559C469.541 239.484 462.31 233.015 458.314 224.429C454.217 215.624 451.922 205.451 451.922 194.136C451.922 157.081 481.96 127.043 519.015 127.043Z" fill="url(#paint1_linear_1624_6585)"/>
</g>
<g filter="url(#filter1_di_1624_6585)">
<rect x="2640.68" y="795.138" width="700.582" height="172.013" rx="46.4279" transform="rotate(-180 2640.68 795.138)" fill="#5B289E"/>
<path d="M2061.76 748.71C2056.36 748.71 2051.52 747.834 2047.25 746.082C2042.97 744.33 2039.54 741.737 2036.95 738.303C2034.42 734.869 2033.09 730.734 2032.95 725.899H2052.09C2052.37 728.632 2053.31 730.734 2054.92 732.206C2056.54 733.608 2058.64 734.309 2061.23 734.309C2063.89 734.309 2066 733.713 2067.54 732.521C2069.08 731.26 2069.85 729.543 2069.85 727.37C2069.85 725.548 2069.22 724.042 2067.96 722.85C2066.77 721.659 2065.26 720.678 2063.44 719.907C2061.69 719.136 2059.16 718.26 2055.87 717.279C2051.1 715.807 2047.21 714.335 2044.2 712.863C2041.19 711.392 2038.59 709.219 2036.42 706.346C2034.25 703.472 2033.16 699.723 2033.16 695.098C2033.16 688.23 2035.65 682.868 2040.63 679.014C2045.6 675.089 2052.09 673.127 2060.07 673.127C2068.2 673.127 2074.76 675.089 2079.73 679.014C2084.71 682.868 2087.37 688.265 2087.72 695.203H2068.27C2068.13 692.82 2067.26 690.963 2065.65 689.631C2064.03 688.23 2061.97 687.529 2059.44 687.529C2057.27 687.529 2055.52 688.124 2054.19 689.316C2052.86 690.437 2052.19 692.084 2052.19 694.257C2052.19 696.639 2053.31 698.497 2055.55 699.828C2057.8 701.16 2061.3 702.596 2066.07 704.138C2070.83 705.75 2074.69 707.292 2077.63 708.764C2080.64 710.235 2083.24 712.373 2085.41 715.176C2087.58 717.979 2088.67 721.589 2088.67 726.004C2088.67 730.209 2087.58 734.028 2085.41 737.462C2083.31 740.896 2080.22 743.629 2076.16 745.662C2072.09 747.694 2067.29 748.71 2061.76 748.71Z" fill="white"/>
<path d="M2119.81 688.58V703.507H2143.88V717.384H2119.81V733.573H2147.04V747.975H2101.83V674.178H2147.04V688.58H2119.81Z" fill="white"/>
<path d="M2206.75 734.939H2179.21L2174.79 747.975H2155.97L2182.67 674.178H2203.49L2230.19 747.975H2211.16L2206.75 734.939ZM2202.12 721.063L2192.98 694.046L2183.94 721.063H2202.12Z" fill="white"/>
<path d="M2267.12 748.71C2261.72 748.71 2256.89 747.834 2252.61 746.082C2248.34 744.33 2244.9 741.737 2242.31 738.303C2239.79 734.869 2238.46 730.734 2238.32 725.899H2257.45C2257.73 728.632 2258.68 730.734 2260.29 732.206C2261.9 733.608 2264 734.309 2266.59 734.309C2269.26 734.309 2271.36 733.713 2272.9 732.521C2274.44 731.26 2275.21 729.543 2275.21 727.37C2275.21 725.548 2274.58 724.042 2273.32 722.85C2272.13 721.659 2270.62 720.678 2268.8 719.907C2267.05 719.136 2264.53 718.26 2261.23 717.279C2256.47 715.807 2252.58 714.335 2249.56 712.863C2246.55 711.392 2243.96 709.219 2241.79 706.346C2239.61 703.472 2238.53 699.723 2238.53 695.098C2238.53 688.23 2241.01 682.868 2245.99 679.014C2250.97 675.089 2257.45 673.127 2265.44 673.127C2273.57 673.127 2280.12 675.089 2285.1 679.014C2290.07 682.868 2292.74 688.265 2293.09 695.203H2273.64C2273.5 692.82 2272.62 690.963 2271.01 689.631C2269.4 688.23 2267.33 687.529 2264.81 687.529C2262.64 687.529 2260.88 688.124 2259.55 689.316C2258.22 690.437 2257.55 692.084 2257.55 694.257C2257.55 696.639 2258.68 698.497 2260.92 699.828C2263.16 701.16 2266.66 702.596 2271.43 704.138C2276.2 705.75 2280.05 707.292 2282.99 708.764C2286.01 710.235 2288.6 712.373 2290.77 715.176C2292.95 717.979 2294.03 721.589 2294.03 726.004C2294.03 730.209 2292.95 734.028 2290.77 737.462C2288.67 740.896 2285.59 743.629 2281.52 745.662C2277.46 747.694 2272.66 748.71 2267.12 748.71Z" fill="white"/>
<path d="M2342.1 748.71C2335.16 748.71 2328.78 747.099 2322.97 743.875C2317.22 740.651 2312.63 736.166 2309.19 730.419C2305.83 724.602 2304.15 718.085 2304.15 710.866C2304.15 703.648 2305.83 697.165 2309.19 691.418C2312.63 685.672 2317.22 681.186 2322.97 677.963C2328.78 674.739 2335.16 673.127 2342.1 673.127C2349.04 673.127 2355.38 674.739 2361.13 677.963C2366.94 681.186 2371.5 685.672 2374.79 691.418C2378.15 697.165 2379.84 703.648 2379.84 710.866C2379.84 718.085 2378.15 724.602 2374.79 730.419C2371.43 736.166 2366.87 740.651 2361.13 743.875C2355.38 747.099 2349.04 748.71 2342.1 748.71ZM2342.1 732.311C2347.98 732.311 2352.68 730.349 2356.18 726.424C2359.76 722.5 2361.55 717.314 2361.55 710.866C2361.55 704.348 2359.76 699.162 2356.18 695.308C2352.68 691.383 2347.98 689.421 2342.1 689.421C2336.14 689.421 2331.38 691.348 2327.8 695.203C2324.3 699.057 2322.54 704.278 2322.54 710.866C2322.54 717.384 2324.3 722.605 2327.8 726.529C2331.38 730.384 2336.14 732.311 2342.1 732.311Z" fill="white"/>
<path d="M2457.96 747.975H2439.98L2409.92 702.456V747.975H2391.94V674.178H2409.92L2439.98 719.907V674.178H2457.96V747.975Z" fill="white"/>
<path d="M2495.05 733.573C2497.43 731.68 2498.52 730.804 2498.31 730.945C2505.18 725.268 2510.57 720.607 2514.5 716.963C2518.49 713.319 2521.86 709.499 2524.59 705.505C2527.32 701.51 2528.69 697.621 2528.69 693.836C2528.69 690.963 2528.03 688.72 2526.69 687.108C2525.36 685.496 2523.36 684.69 2520.7 684.69C2518.04 684.69 2515.94 685.707 2514.39 687.739C2512.92 689.701 2512.19 692.505 2512.19 696.149H2494.84C2494.98 690.192 2496.24 685.216 2498.63 681.221C2501.08 677.227 2504.27 674.283 2508.19 672.391C2512.19 670.499 2516.6 669.553 2521.44 669.553C2529.78 669.553 2536.05 671.69 2540.25 675.965C2544.53 680.24 2546.67 685.812 2546.67 692.68C2546.67 700.179 2544.11 707.152 2538.99 713.599C2533.88 719.977 2527.36 726.214 2519.44 732.311H2547.82V746.923H2495.05V733.573Z" fill="white"/>
</g>
<defs>
<filter id="filter0_di_1624_6585" x="-2.06813" y="-22.7567" width="2644.92" height="626.233" filterUnits="userSpaceOnUse" color-interpolation-filters="sRGB">
<feFlood flood-opacity="0" result="BackgroundImageFix"/>
<feColorMatrix in="SourceAlpha" type="matrix" values="0 0 0 0 0 0 0 0 0 0 0 0 0 0 0 0 0 0 127 0" result="hardAlpha"/>
<feOffset dy="20.1644"/>
<feGaussianBlur stdDeviation="10.0822"/>
<feComposite in2="hardAlpha" operator="out"/>
<feColorMatrix type="matrix" values="0 0 0 0 0 0 0 0 0 0 0 0 0 0 0 0 0 0 0.25 0"/>
<feBlend mode="normal" in2="BackgroundImageFix" result="effect1_dropShadow_1624_6585"/>
<feBlend mode="normal" in="SourceGraphic" in2="effect1_dropShadow_1624_6585" result="shape"/>
<feColorMatrix in="SourceAlpha" type="matrix" values="0 0 0 0 0 0 0 0 0 0 0 0 0 0 0 0 0 0 127 0" result="hardAlpha"/>
<feOffset dx="-23.0681" dy="-23.0681"/>
<feGaussianBlur stdDeviation="14.7636"/>
<feComposite in2="hardAlpha" operator="arithmetic" k2="-1" k3="1"/>
<feColorMatrix type="matrix" values="0 0 0 0 0 0 0 0 0 0 0 0 0 0 0 0 0 0 0.4 0"/>
<feBlend mode="normal" in2="shape" result="effect2_innerShadow_1624_6585"/>
</filter>
<filter id="filter1_di_1624_6585" x="1919.97" y="613.06" width="740.841" height="222.337" filterUnits="userSpaceOnUse" color-interpolation-filters="sRGB">
<feFlood flood-opacity="0" result="BackgroundImageFix"/>
<feColorMatrix in="SourceAlpha" type="matrix" values="0 0 0 0 0 0 0 0 0 0 0 0 0 0 0 0 0 0 127 0" result="hardAlpha"/>
<feOffset dy="20.1295"/>
<feGaussianBlur stdDeviation="10.0647"/>
<feComposite in2="hardAlpha" operator="out"/>
<feColorMatrix type="matrix" values="0 0 0 0 0 0 0 0 0 0 0 0 0 0 0 0 0 0 0.25 0"/>
<feBlend mode="normal" in2="BackgroundImageFix" result="effect1_dropShadow_1624_6585"/>
<feBlend mode="normal" in="SourceGraphic" in2="effect1_dropShadow_1624_6585" result="shape"/>
<feColorMatrix in="SourceAlpha" type="matrix" values="0 0 0 0 0 0 0 0 0 0 0 0 0 0 0 0 0 0 127 0" result="hardAlpha"/>
<feOffset dx="-10.0647" dy="-10.0647"/>
<feGaussianBlur stdDeviation="13.8409"/>
<feComposite in2="hardAlpha" operator="arithmetic" k2="-1" k3="1"/>
<feColorMatrix type="matrix" values="0 0 0 0 0 0 0 0 0 0 0 0 0 0 0 0 0 0 0.4 0"/>
<feBlend mode="normal" in2="shape" result="effect2_innerShadow_1624_6585"/>
</filter>
<linearGradient id="paint0_linear_1624_6585" x1="446.439" y1="90.2748" x2="589.183" y2="856.101" gradientUnits="userSpaceOnUse">
<stop stop-color="#00E2FF"/>
<stop offset="0.625" stop-color="#A138FA"/>
</linearGradient>
<linearGradient id="paint1_linear_1624_6585" x1="446.439" y1="90.2748" x2="589.183" y2="856.101" gradientUnits="userSpaceOnUse">
<stop stop-color="#00E2FF"/>
<stop offset="0.625" stop-color="#A138FA"/>
</linearGradient>
</defs>
</svg>
