<svg width="12000" height="6000" viewBox="0 0 12000 6000" fill="none" xmlns="http://www.w3.org/2000/svg">
<g clip-path="url(#clip0_1731_466)">
<rect width="12000" height="6000" fill="url(#paint0_linear_1731_466)"/>
<path d="M15150.6 288H4272" stroke="#011180" stroke-opacity="0.35" stroke-width="16.2227" stroke-miterlimit="10"/>
<path d="M15150.6 576H4272" stroke="#011180" stroke-opacity="0.35" stroke-width="16.2227" stroke-miterlimit="10"/>
<path d="M15150.6 864H4272" stroke="#011180" stroke-opacity="0.35" stroke-width="16.2227" stroke-miterlimit="10"/>
<path d="M15150.6 1152H4272" stroke="#011180" stroke-opacity="0.35" stroke-width="16.2227" stroke-miterlimit="10"/>
<path d="M15150.6 1440H4272" stroke="#011180" stroke-opacity="0.35" stroke-width="16.2227" stroke-miterlimit="10"/>
<path d="M15150.6 1728H4272" stroke="#011180" stroke-opacity="0.35" stroke-width="16.2227" stroke-miterlimit="10"/>
<path d="M15150.6 2016H4272" stroke="#011180" stroke-opacity="0.35" stroke-width="16.2227" stroke-miterlimit="10"/>
<path d="M15150.6 2304H4272" stroke="#011180" stroke-opacity="0.35" stroke-width="16.2227" stroke-miterlimit="10"/>
<path d="M15150.6 2592H4272" stroke="#011180" stroke-opacity="0.35" stroke-width="16.2227" stroke-miterlimit="10"/>
<path d="M15150.6 2880H4272" stroke="#011180" stroke-opacity="0.35" stroke-width="16.2227" stroke-miterlimit="10"/>
<path d="M15150.6 3168H4272" stroke="#011180" stroke-opacity="0.35" stroke-width="16.2227" stroke-miterlimit="10"/>
<path d="M15150.6 3456H4272" stroke="#011180" stroke-opacity="0.35" stroke-width="16.2227" stroke-miterlimit="10"/>
<path d="M15150.6 3744H4272" stroke="#011180" stroke-opacity="0.35" stroke-width="16.2227" stroke-miterlimit="10"/>
<path d="M15150.6 4032H4272" stroke="#011180" stroke-opacity="0.35" stroke-width="16.2227" stroke-miterlimit="10"/>
<path d="M15150.6 4320H4272" stroke="#011180" stroke-opacity="0.35" stroke-width="16.2227" stroke-miterlimit="10"/>
<path d="M15150.6 4608H4272" stroke="#011180" stroke-opacity="0.35" stroke-width="16.2227" stroke-miterlimit="10"/>
<path d="M15150.6 4896H4272" stroke="#011180" stroke-opacity="0.35" stroke-width="16.2227" stroke-miterlimit="10"/>
<path d="M15150.6 5184H4272" stroke="#011180" stroke-opacity="0.35" stroke-width="16.2227" stroke-miterlimit="10"/>
<path d="M15150.6 5472H4272" stroke="#011180" stroke-opacity="0.35" stroke-width="16.2227" stroke-miterlimit="10"/>
<path d="M15150.6 5760H4272" stroke="#011180" stroke-opacity="0.35" stroke-width="16.2227" stroke-miterlimit="10"/>
<path d="M288.004 0V18131" stroke="#011180" stroke-opacity="0.35" stroke-width="16.2171" stroke-miterlimit="10"/>
<path d="M576.004 0V18131" stroke="#011180" stroke-opacity="0.35" stroke-width="16.2171" stroke-miterlimit="10"/>
<path d="M864.004 0V18131" stroke="#011180" stroke-opacity="0.35" stroke-width="16.2171" stroke-miterlimit="10"/>
<path d="M1152 0V18131" stroke="#011180" stroke-opacity="0.35" stroke-width="16.2171" stroke-miterlimit="10"/>
<path d="M1440 0V18131" stroke="#011180" stroke-opacity="0.35" stroke-width="16.2171" stroke-miterlimit="10"/>
<path d="M1728 0V18131" stroke="#011180" stroke-opacity="0.35" stroke-width="16.2171" stroke-miterlimit="10"/>
<path d="M2016 0V18131" stroke="#011180" stroke-opacity="0.35" stroke-width="16.2171" stroke-miterlimit="10"/>
<path d="M2304 0V18131" stroke="#011180" stroke-opacity="0.35" stroke-width="16.2171" stroke-miterlimit="10"/>
<path d="M2592 0V18131" stroke="#011180" stroke-opacity="0.35" stroke-width="16.2171" stroke-miterlimit="10"/>
<path d="M2880 0V18131" stroke="#011180" stroke-opacity="0.35" stroke-width="16.2171" stroke-miterlimit="10"/>
<path d="M3168 0V18131" stroke="#011180" stroke-opacity="0.35" stroke-width="16.2171" stroke-miterlimit="10"/>
<path d="M3744 0V18131" stroke="#011180" stroke-opacity="0.35" stroke-width="16.2171" stroke-miterlimit="10"/>
<path d="M4032 0V18131" stroke="#011180" stroke-opacity="0.35" stroke-width="16.2171" stroke-miterlimit="10"/>
<path d="M4320 0V18131" stroke="#011180" stroke-opacity="0.35" stroke-width="16.2171" stroke-miterlimit="10"/>
<path d="M4608 0V18131" stroke="#011180" stroke-opacity="0.35" stroke-width="16.2171" stroke-miterlimit="10"/>
<path d="M4896 0V18131" stroke="#011180" stroke-opacity="0.35" stroke-width="16.2171" stroke-miterlimit="10"/>
<path d="M5184 0V18131" stroke="#011180" stroke-opacity="0.35" stroke-width="16.2171" stroke-miterlimit="10"/>
<path d="M5472 0V18131" stroke="#011180" stroke-opacity="0.35" stroke-width="16.2171" stroke-miterlimit="10"/>
<path d="M5760 0V18131" stroke="#011180" stroke-opacity="0.35" stroke-width="16.2171" stroke-miterlimit="10"/>
<path d="M6048 0V18131" stroke="#011180" stroke-opacity="0.35" stroke-width="16.2171" stroke-miterlimit="10"/>
<path d="M6336 0V18131" stroke="#011180" stroke-opacity="0.35" stroke-width="16.2171" stroke-miterlimit="10"/>
<path d="M6624 0V18131" stroke="#011180" stroke-opacity="0.35" stroke-width="16.2171" stroke-miterlimit="10"/>
<path d="M6912 0V18131" stroke="#011180" stroke-opacity="0.35" stroke-width="16.2171" stroke-miterlimit="10"/>
<path d="M7200 0V18131" stroke="#011180" stroke-opacity="0.35" stroke-width="16.2171" stroke-miterlimit="10"/>
<path d="M7488 0V18131" stroke="#011180" stroke-opacity="0.35" stroke-width="16.2171" stroke-miterlimit="10"/>
<path d="M7776 0V18131" stroke="#011180" stroke-opacity="0.35" stroke-width="16.2171" stroke-miterlimit="10"/>
<path d="M8064 0V18131" stroke="#011180" stroke-opacity="0.35" stroke-width="16.2171" stroke-miterlimit="10"/>
<path d="M8352 0V18131" stroke="#011180" stroke-opacity="0.35" stroke-width="16.2171" stroke-miterlimit="10"/>
<path d="M8640 0V18131" stroke="#011180" stroke-opacity="0.35" stroke-width="16.2171" stroke-miterlimit="10"/>
<path d="M8928 0V18131" stroke="#011180" stroke-opacity="0.35" stroke-width="16.2171" stroke-miterlimit="10"/>
<path d="M9216 0V18131" stroke="#011180" stroke-opacity="0.35" stroke-width="16.2171" stroke-miterlimit="10"/>
<path d="M9504 0V18131" stroke="#011180" stroke-opacity="0.35" stroke-width="16.2171" stroke-miterlimit="10"/>
<path d="M9792 0V18131" stroke="#011180" stroke-opacity="0.35" stroke-width="16.2171" stroke-miterlimit="10"/>
<path d="M10080 0V18131" stroke="#011180" stroke-opacity="0.35" stroke-width="16.2171" stroke-miterlimit="10"/>
</g>
<defs>
<linearGradient id="paint0_linear_1731_466" x1="3136.01" y1="7724.36" x2="8455.09" y2="-1949.2" gradientUnits="userSpaceOnUse">
<stop stop-color="#18163F"/>
<stop offset="0.3441" stop-color="#181641"/>
<stop offset="0.5295" stop-color="#161449"/>
<stop offset="0.6771" stop-color="#131257"/>
<stop offset="0.8048" stop-color="#0F0E6A"/>
<stop offset="0.9184" stop-color="#0B0A83"/>
<stop offset="1" stop-color="#06069A"/>
</linearGradient>
<clipPath id="clip0_1731_466">
<rect width="12000" height="6000" fill="white"/>
</clipPath>
</defs>
</svg>
