<svg width="2844" height="456" viewBox="0 0 2844 456" fill="none" xmlns="http://www.w3.org/2000/svg">
<g filter="url(#filter0_i_2649_38)">
<path d="M2468.75 343.75V0L2593.75 125H2750L2718.75 93.75H2593.75L2500 0H2812.5L2843.75 31.25V187.5H2593.75V250H2718.75L2750 218.75H2843.75V312.5L2812.5 343.75H2468.75Z" fill="url(#paint0_linear_2649_38)"/>
</g>
<g filter="url(#filter1_i_2649_38)">
<path d="M2062.5 343.75V0L2187.5 125V156.25H2343.75V125L2312.5 93.75H2187.5L2093.75 0H2406.25L2437.5 31.25V218.75L2406.25 250H2187.5V343.75H2062.5Z" fill="url(#paint1_linear_2649_38)"/>
</g>
<g filter="url(#filter2_i_2649_38)">
<path d="M1781.25 343.75V203.125L1656.25 78.125V0H1734.38L1843.75 109.375L1953.12 0H2031.25V78.125L1906.25 203.125V312.5L1875 343.75H1781.25Z" fill="url(#paint2_linear_2649_38)"/>
</g>
<g filter="url(#filter3_i_2649_38)">
<path d="M1500 250V156.25L1531.25 125V93.75L1375 250H1500ZM1218.75 343.75V250L1468.75 0H1625V343.75H1500V312.5H1312.5L1281.25 343.75H1218.75Z" fill="url(#paint3_linear_2649_38)"/>
</g>
<g filter="url(#filter4_i_2649_38)">
<path d="M812.5 343.75V0L937.5 125V250H1062.5L1093.75 218.75H1187.5V312.5L1156.25 343.75H812.5ZM1093.75 125L1062.5 93.75H937.5L843.75 0H1156.25L1187.5 31.25V125H1093.75Z" fill="url(#paint4_linear_2649_38)"/>
</g>
<g filter="url(#filter5_i_2649_38)">
<path d="M437.5 343.75L406.25 312.5V250H500V265.625H687.5V218.75H468.75L406.25 156.25V0H750L781.25 31.25V93.75H687.5V78.125H500V156.25L531.25 125H718.75L781.25 187.5V343.75H437.5Z" fill="url(#paint5_linear_2649_38)"/>
</g>
<g filter="url(#filter6_i_2649_38)">
<path d="M0 343.75V0L125 125H281.25L250 93.75H125L31.25 0H343.75L375 31.25V187.5H125V250H250L281.25 218.75H375V312.5L343.75 343.75H0Z" fill="url(#paint6_linear_2649_38)"/>
</g>
<path d="M34.27 426.75V433.15C34.27 438.462 29.982 442.75 24.67 442.75H3.55V397.95H24.67C29.982 397.95 34.27 402.11 34.27 407.422V413.95C34.27 416.318 33.438 418.558 31.838 420.286C33.438 422.014 34.27 424.382 34.27 426.75ZM27.87 414.014V407.486C27.87 405.694 26.398 404.35 24.67 404.35H9.95V417.15H24.67C26.398 417.15 27.87 415.806 27.87 414.014ZM27.87 433.15V426.75C27.87 424.958 26.398 423.55 24.67 423.55H9.95V436.35H24.67C26.398 436.35 27.87 434.878 27.87 433.15ZM96.995 417.15V433.15C96.995 438.462 92.707 442.75 87.395 442.75H75.811C70.499 442.75 66.275 438.462 66.275 433.15V407.55C66.275 402.238 70.499 397.95 75.811 397.95H87.395C92.707 397.95 96.995 402.238 96.995 407.55H90.595C90.595 405.758 89.123 404.35 87.395 404.35H75.811C74.083 404.35 72.675 405.758 72.675 407.55V433.15C72.675 434.942 74.083 436.35 75.811 436.35H87.395C89.123 436.35 90.595 434.942 90.595 433.15V423.55H81.635V417.15H96.995ZM159.72 397.95V442.75H153.32V409.79L147.88 417.982C147.688 418.302 147.56 419.582 147.56 420.286V423.55H141.16V420.286C141.16 419.582 141.096 418.366 140.84 417.982L135.4 409.854V442.75H129V397.95H135.4L144.296 411.582L153.32 397.95H159.72ZM222.445 436.35V442.75H191.725V436.35H203.885V404.35H191.725V397.95H222.445V404.35H210.285V436.35H222.445Z" fill="white"/>
<line x1="403.958" y1="391.75" x2="403.958" y2="455.75" stroke="white" stroke-width="2"/>
<path d="M614.237 417.15V423.55H589.917V442.75H583.517V397.95H614.237V404.35H589.917V417.15H614.237ZM670.562 412.35V409.15C670.562 406.462 668.386 404.35 665.762 404.35H652.642V417.15H665.762C668.386 417.15 670.562 414.974 670.562 412.35ZM676.962 409.15V412.35C676.962 417.726 673.186 422.206 668.194 423.294L675.106 431.806C676.962 434.11 676.962 435.454 676.962 436.99V442.75H670.562V436.35L660.066 423.55H652.642V442.75H646.242V397.95H665.762C671.97 397.95 676.962 402.942 676.962 409.15ZM739.687 417.15V423.55H715.367V436.35H739.687V442.75H708.967V397.95H739.687V404.35H715.367V417.15H739.687ZM802.412 417.15V423.55H778.092V436.35H802.412V442.75H771.692V397.95H802.412V404.35H778.092V417.15H802.412ZM865.137 417.15V423.55H840.817V442.75H834.417V397.95H865.137V404.35H840.817V417.15H865.137ZM927.862 436.35V442.75H897.142V436.35H909.302V404.35H897.142V397.95H927.862V404.35H915.702V436.35H927.862ZM984.187 412.35V409.15C984.187 406.462 982.011 404.35 979.387 404.35H966.267V417.15H979.387C982.011 417.15 984.187 414.974 984.187 412.35ZM990.587 409.15V412.35C990.587 417.726 986.811 422.206 981.819 423.294L988.731 431.806C990.587 434.11 990.587 435.454 990.587 436.99V442.75H984.187V436.35L973.691 423.55H966.267V442.75H959.867V397.95H979.387C985.595 397.95 990.587 402.942 990.587 409.15ZM1053.31 417.15V423.55H1028.99V436.35H1053.31V442.75H1022.59V397.95H1053.31V404.35H1028.99V417.15H1053.31Z" fill="white"/>
<line x1="1234.88" y1="391.75" x2="1234.88" y2="455.75" stroke="white" stroke-width="2"/>
<path d="M1444.93 417.15V423.55H1420.61V436.35H1444.93V442.75H1414.21V397.95H1444.93V404.35H1420.61V417.15H1444.93ZM1507.65 423.55H1476.93V417.15H1507.65V423.55ZM1570.38 417.15V423.55H1546.06V442.75H1539.66V397.95H1570.38V404.35H1546.06V417.15H1570.38ZM1633.1 407.55V433.15C1633.1 438.462 1628.82 442.75 1623.5 442.75H1611.98C1606.67 442.75 1602.38 438.462 1602.38 433.15V407.55C1602.38 402.238 1606.67 397.95 1611.98 397.95H1623.5C1628.82 397.95 1633.1 402.238 1633.1 407.55ZM1626.7 433.15V407.55C1626.7 405.758 1625.23 404.35 1623.5 404.35H1611.98C1610.26 404.35 1608.78 405.758 1608.78 407.55V433.15C1608.78 434.878 1610.26 436.35 1611.98 436.35H1623.5C1625.23 436.35 1626.7 434.878 1626.7 433.15ZM1695.83 407.55V433.15C1695.83 438.462 1691.54 442.75 1686.23 442.75H1674.71C1669.4 442.75 1665.11 438.462 1665.11 433.15V407.55C1665.11 402.238 1669.4 397.95 1674.71 397.95H1686.23C1691.54 397.95 1695.83 402.238 1695.83 407.55ZM1689.43 433.15V407.55C1689.43 405.758 1687.96 404.35 1686.23 404.35H1674.71C1672.98 404.35 1671.51 405.758 1671.51 407.55V433.15C1671.51 434.878 1672.98 436.35 1674.71 436.35H1686.23C1687.96 436.35 1689.43 434.878 1689.43 433.15ZM1758.55 397.95V404.35H1746.39V442.75H1739.99V404.35H1727.83V397.95H1758.55ZM1821.28 426.75V433.15C1821.28 438.462 1816.99 442.75 1811.68 442.75H1790.56V397.95H1811.68C1816.99 397.95 1821.28 402.11 1821.28 407.422V413.95C1821.28 416.318 1820.45 418.558 1818.85 420.286C1820.45 422.014 1821.28 424.382 1821.28 426.75ZM1814.88 414.014V407.486C1814.88 405.694 1813.41 404.35 1811.68 404.35H1796.96V417.15H1811.68C1813.41 417.15 1814.88 415.806 1814.88 414.014ZM1814.88 433.15V426.75C1814.88 424.958 1813.41 423.55 1811.68 423.55H1796.96V436.35H1811.68C1813.41 436.35 1814.88 434.878 1814.88 433.15ZM1865.44 397.95H1871.84C1873.83 397.95 1874.34 398.654 1875.11 400.254L1883.62 418.174C1884 419.006 1884 420.222 1884 422.078V442.75H1877.6V433.15H1859.68V442.75H1853.28V422.078C1853.28 420.222 1853.28 419.006 1853.67 418.174L1862.12 400.254C1862.82 398.654 1863.46 397.95 1865.44 397.95ZM1877.6 426.75V420.286L1870.24 404.35H1867.24L1859.68 420.286V426.75H1877.6ZM1946.73 436.35V442.75H1916.01V397.95H1922.41V436.35H1946.73ZM2009.45 436.35V442.75H1978.73V397.95H1985.13V436.35H2009.45Z" fill="white"/>
<line x1="2190.79" y1="391.75" x2="2190.79" y2="455.75" stroke="white" stroke-width="2"/>
<path d="M2388.91 442.75H2382.45C2380.46 442.75 2379.89 441.982 2379.18 440.382L2370.73 422.462C2370.35 421.63 2370.35 420.414 2370.35 418.558V397.95H2376.75V420.35L2384.3 436.35H2387.31L2394.67 420.35V397.95H2401.07V418.558C2401.07 420.414 2401.07 421.63 2400.69 422.462L2392.17 440.382C2391.47 441.982 2390.89 442.75 2388.91 442.75ZM2445.23 397.95H2451.63C2453.62 397.95 2454.13 398.654 2454.9 400.254L2463.41 418.174C2463.79 419.006 2463.79 420.222 2463.79 422.078V442.75H2457.39V433.15H2439.47V442.75H2433.07V422.078C2433.07 420.222 2433.07 419.006 2433.46 418.174L2441.91 400.254C2442.61 398.654 2443.25 397.95 2445.23 397.95ZM2457.39 426.75V420.286L2450.03 404.35H2447.03L2439.47 420.286V426.75H2457.39ZM2526.52 436.35V442.75H2495.8V397.95H2502.2V436.35H2526.52ZM2589.24 407.55V433.15C2589.24 438.462 2584.96 442.75 2579.64 442.75H2568.12C2562.81 442.75 2558.52 438.462 2558.52 433.15V407.55C2558.52 402.238 2562.81 397.95 2568.12 397.95H2579.64C2584.96 397.95 2589.24 402.238 2589.24 407.55ZM2582.84 433.15V407.55C2582.84 405.758 2581.37 404.35 2579.64 404.35H2568.12C2566.4 404.35 2564.92 405.758 2564.92 407.55V433.15C2564.92 434.878 2566.4 436.35 2568.12 436.35H2579.64C2581.37 436.35 2582.84 434.878 2582.84 433.15ZM2645.57 412.35V409.15C2645.57 406.462 2643.39 404.35 2640.77 404.35H2627.65V417.15H2640.77C2643.39 417.15 2645.57 414.974 2645.57 412.35ZM2651.97 409.15V412.35C2651.97 417.726 2648.19 422.206 2643.2 423.294L2650.11 431.806C2651.97 434.11 2651.97 435.454 2651.97 436.99V442.75H2645.57V436.35L2635.07 423.55H2627.65V442.75H2621.25V397.95H2640.77C2646.98 397.95 2651.97 402.942 2651.97 409.15ZM2696.13 397.95H2702.53C2704.52 397.95 2705.03 398.654 2705.8 400.254L2714.31 418.174C2714.69 419.006 2714.69 420.222 2714.69 422.078V442.75H2708.29V433.15H2690.37V442.75H2683.97V422.078C2683.97 420.222 2683.97 419.006 2684.36 418.174L2692.81 400.254C2693.51 398.654 2694.15 397.95 2696.13 397.95ZM2708.29 426.75V420.286L2700.93 404.35H2697.93L2690.37 420.286V426.75H2708.29ZM2777.42 397.95V442.75H2771.02L2753.1 410.75V442.75H2746.7V397.95H2753.1L2771.02 429.95V397.95H2777.42ZM2840.15 397.95V404.35H2827.99V442.75H2821.59V404.35H2809.43V397.95H2840.15Z" fill="white"/>
<defs>
<filter id="filter0_i_2649_38" x="2468.75" y="0" width="375" height="351.75" filterUnits="userSpaceOnUse" color-interpolation-filters="sRGB">
<feFlood flood-opacity="0" result="BackgroundImageFix"/>
<feBlend mode="normal" in="SourceGraphic" in2="BackgroundImageFix" result="shape"/>
<feColorMatrix in="SourceAlpha" type="matrix" values="0 0 0 0 0 0 0 0 0 0 0 0 0 0 0 0 0 0 127 0" result="hardAlpha"/>
<feOffset dy="8"/>
<feGaussianBlur stdDeviation="16"/>
<feComposite in2="hardAlpha" operator="arithmetic" k2="-1" k3="1"/>
<feColorMatrix type="matrix" values="0 0 0 0 0 0 0 0 0 0 0 0 0 0 0 0 0 0 0.25 0"/>
<feBlend mode="normal" in2="shape" result="effect1_innerShadow_2649_38"/>
</filter>
<filter id="filter1_i_2649_38" x="2062.5" y="0" width="375" height="351.75" filterUnits="userSpaceOnUse" color-interpolation-filters="sRGB">
<feFlood flood-opacity="0" result="BackgroundImageFix"/>
<feBlend mode="normal" in="SourceGraphic" in2="BackgroundImageFix" result="shape"/>
<feColorMatrix in="SourceAlpha" type="matrix" values="0 0 0 0 0 0 0 0 0 0 0 0 0 0 0 0 0 0 127 0" result="hardAlpha"/>
<feOffset dy="8"/>
<feGaussianBlur stdDeviation="16"/>
<feComposite in2="hardAlpha" operator="arithmetic" k2="-1" k3="1"/>
<feColorMatrix type="matrix" values="0 0 0 0 0 0 0 0 0 0 0 0 0 0 0 0 0 0 0.25 0"/>
<feBlend mode="normal" in2="shape" result="effect1_innerShadow_2649_38"/>
</filter>
<filter id="filter2_i_2649_38" x="1656.25" y="0" width="375" height="351.75" filterUnits="userSpaceOnUse" color-interpolation-filters="sRGB">
<feFlood flood-opacity="0" result="BackgroundImageFix"/>
<feBlend mode="normal" in="SourceGraphic" in2="BackgroundImageFix" result="shape"/>
<feColorMatrix in="SourceAlpha" type="matrix" values="0 0 0 0 0 0 0 0 0 0 0 0 0 0 0 0 0 0 127 0" result="hardAlpha"/>
<feOffset dy="8"/>
<feGaussianBlur stdDeviation="16"/>
<feComposite in2="hardAlpha" operator="arithmetic" k2="-1" k3="1"/>
<feColorMatrix type="matrix" values="0 0 0 0 0 0 0 0 0 0 0 0 0 0 0 0 0 0 0.25 0"/>
<feBlend mode="normal" in2="shape" result="effect1_innerShadow_2649_38"/>
</filter>
<filter id="filter3_i_2649_38" x="1218.75" y="0" width="406.25" height="351.75" filterUnits="userSpaceOnUse" color-interpolation-filters="sRGB">
<feFlood flood-opacity="0" result="BackgroundImageFix"/>
<feBlend mode="normal" in="SourceGraphic" in2="BackgroundImageFix" result="shape"/>
<feColorMatrix in="SourceAlpha" type="matrix" values="0 0 0 0 0 0 0 0 0 0 0 0 0 0 0 0 0 0 127 0" result="hardAlpha"/>
<feOffset dy="8"/>
<feGaussianBlur stdDeviation="16"/>
<feComposite in2="hardAlpha" operator="arithmetic" k2="-1" k3="1"/>
<feColorMatrix type="matrix" values="0 0 0 0 0 0 0 0 0 0 0 0 0 0 0 0 0 0 0.25 0"/>
<feBlend mode="normal" in2="shape" result="effect1_innerShadow_2649_38"/>
</filter>
<filter id="filter4_i_2649_38" x="812.5" y="0" width="375" height="351.75" filterUnits="userSpaceOnUse" color-interpolation-filters="sRGB">
<feFlood flood-opacity="0" result="BackgroundImageFix"/>
<feBlend mode="normal" in="SourceGraphic" in2="BackgroundImageFix" result="shape"/>
<feColorMatrix in="SourceAlpha" type="matrix" values="0 0 0 0 0 0 0 0 0 0 0 0 0 0 0 0 0 0 127 0" result="hardAlpha"/>
<feOffset dy="8"/>
<feGaussianBlur stdDeviation="16"/>
<feComposite in2="hardAlpha" operator="arithmetic" k2="-1" k3="1"/>
<feColorMatrix type="matrix" values="0 0 0 0 0 0 0 0 0 0 0 0 0 0 0 0 0 0 0.25 0"/>
<feBlend mode="normal" in2="shape" result="effect1_innerShadow_2649_38"/>
</filter>
<filter id="filter5_i_2649_38" x="406.25" y="0" width="375" height="351.75" filterUnits="userSpaceOnUse" color-interpolation-filters="sRGB">
<feFlood flood-opacity="0" result="BackgroundImageFix"/>
<feBlend mode="normal" in="SourceGraphic" in2="BackgroundImageFix" result="shape"/>
<feColorMatrix in="SourceAlpha" type="matrix" values="0 0 0 0 0 0 0 0 0 0 0 0 0 0 0 0 0 0 127 0" result="hardAlpha"/>
<feOffset dy="8"/>
<feGaussianBlur stdDeviation="16"/>
<feComposite in2="hardAlpha" operator="arithmetic" k2="-1" k3="1"/>
<feColorMatrix type="matrix" values="0 0 0 0 0 0 0 0 0 0 0 0 0 0 0 0 0 0 0.25 0"/>
<feBlend mode="normal" in2="shape" result="effect1_innerShadow_2649_38"/>
</filter>
<filter id="filter6_i_2649_38" x="0" y="0" width="375" height="351.75" filterUnits="userSpaceOnUse" color-interpolation-filters="sRGB">
<feFlood flood-opacity="0" result="BackgroundImageFix"/>
<feBlend mode="normal" in="SourceGraphic" in2="BackgroundImageFix" result="shape"/>
<feColorMatrix in="SourceAlpha" type="matrix" values="0 0 0 0 0 0 0 0 0 0 0 0 0 0 0 0 0 0 127 0" result="hardAlpha"/>
<feOffset dy="8"/>
<feGaussianBlur stdDeviation="16"/>
<feComposite in2="hardAlpha" operator="arithmetic" k2="-1" k3="1"/>
<feColorMatrix type="matrix" values="0 0 0 0 0 0 0 0 0 0 0 0 0 0 0 0 0 0 0.25 0"/>
<feBlend mode="normal" in2="shape" result="effect1_innerShadow_2649_38"/>
</filter>
<linearGradient id="paint0_linear_2649_38" x1="2656.25" y1="-73.5" x2="2656.25" y2="351.5" gradientUnits="userSpaceOnUse">
<stop stop-color="#FFA200"/>
<stop offset="1" stop-color="#FFC94D"/>
</linearGradient>
<linearGradient id="paint1_linear_2649_38" x1="2250" y1="-73.5" x2="2250" y2="351.5" gradientUnits="userSpaceOnUse">
<stop stop-color="#FFA200"/>
<stop offset="1" stop-color="#FFC94D"/>
</linearGradient>
<linearGradient id="paint2_linear_2649_38" x1="1843.75" y1="-73.5" x2="1843.75" y2="351.5" gradientUnits="userSpaceOnUse">
<stop stop-color="#FFA200"/>
<stop offset="1" stop-color="#FFC94D"/>
</linearGradient>
<linearGradient id="paint3_linear_2649_38" x1="1421.88" y1="-73.5" x2="1421.88" y2="351.5" gradientUnits="userSpaceOnUse">
<stop stop-color="#FFA200"/>
<stop offset="1" stop-color="#FFC94D"/>
</linearGradient>
<linearGradient id="paint4_linear_2649_38" x1="1000" y1="-73.5" x2="1000" y2="351.5" gradientUnits="userSpaceOnUse">
<stop stop-color="#FFA200"/>
<stop offset="1" stop-color="#FFC94D"/>
</linearGradient>
<linearGradient id="paint5_linear_2649_38" x1="593.75" y1="-73.5" x2="593.75" y2="351.5" gradientUnits="userSpaceOnUse">
<stop stop-color="#FFA200"/>
<stop offset="1" stop-color="#FFC94D"/>
</linearGradient>
<linearGradient id="paint6_linear_2649_38" x1="187.5" y1="-73.5" x2="187.5" y2="351.5" gradientUnits="userSpaceOnUse">
<stop stop-color="#FFA200"/>
<stop offset="1" stop-color="#FFC94D"/>
</linearGradient>
</defs>
</svg>
