<svg width="63" height="63" viewBox="0 0 63 63" fill="none" xmlns="http://www.w3.org/2000/svg">
<path d="M31.1732 62.5976C29.5071 62.5976 27.8358 62.4643 26.2043 62.2012C19.0099 61.0396 12.4163 57.3314 7.64071 51.7605C2.81336 46.1291 0.154541 38.9326 0.154541 31.4956C0.154541 14.345 14.0702 0.393555 31.1732 0.393555C48.2761 0.393555 62.1919 14.3467 62.1919 31.4956C62.1919 39.0469 59.4605 46.3282 54.4985 51.9977C49.5848 57.6153 42.8341 61.2733 35.4895 62.2999C34.0685 62.4989 32.6148 62.5993 31.1715 62.5993L31.1732 62.5976ZM31.1732 2.46921C15.2115 2.46921 2.22637 15.4893 2.22637 31.4938C2.22637 45.8227 12.4491 57.875 26.5341 60.148C29.3759 60.6068 32.3472 60.6397 35.2046 60.2398C49.4087 58.2559 60.12 45.8971 60.12 31.4938C60.12 15.4893 47.1348 2.46921 31.1732 2.46921Z" fill="#3C3C3B"/>
<path d="M45.1632 18.6261C42.5907 17.442 39.8318 16.5695 36.9467 16.0709C36.8949 16.0605 36.8414 16.0848 36.8155 16.1333C36.4598 16.7669 36.0679 17.5909 35.7916 18.2401C32.6891 17.7744 29.6021 17.7744 26.5634 18.2401C26.2889 17.577 25.8814 16.7651 25.524 16.1333C25.4964 16.0865 25.4446 16.0623 25.3911 16.0709C22.5078 16.5695 19.7489 17.4403 17.1746 18.6261C17.1522 18.6365 17.1332 18.6521 17.1211 18.6729C11.888 26.5133 10.4533 34.1598 11.1577 41.7111C11.1611 41.7475 11.1818 41.7838 11.2094 41.8064C14.6625 44.3494 18.0067 45.8919 21.2888 46.915C21.3406 46.9306 21.3977 46.9116 21.4305 46.8683C22.2074 45.8053 22.8997 44.6835 23.4919 43.5046C23.5265 43.4354 23.4919 43.354 23.4211 43.3263C22.323 42.9091 21.2785 42.4001 20.272 41.8219C20.1926 41.7752 20.1856 41.6609 20.2598 41.6073C20.4722 41.448 20.6829 41.2835 20.8849 41.1156C20.9211 41.0845 20.973 41.0793 21.0161 41.0983C27.6235 44.1227 34.7747 44.1227 41.3044 41.0983C41.3476 41.0775 41.3977 41.0845 41.4357 41.1139C41.6377 41.2801 41.85 41.448 42.0624 41.6073C42.1349 41.6627 42.1315 41.7752 42.052 41.8219C41.0472 42.4105 40.0009 42.9091 38.9011 43.3246C38.8303 43.3523 38.7976 43.4354 38.8321 43.5046C39.4381 44.6818 40.1304 45.8036 40.8918 46.8665C40.9228 46.9116 40.9816 46.9306 41.0334 46.915C44.3311 45.8919 47.677 44.3477 51.1301 41.8064C51.1612 41.7838 51.1801 41.751 51.1819 41.7129C52.0244 32.9809 49.7713 25.3967 45.2133 18.6746C45.2029 18.6521 45.1839 18.6365 45.1615 18.6261H45.1632ZM24.4795 37.1132C22.4906 37.1132 20.8521 35.2816 20.8521 33.0328C20.8521 30.7841 22.4595 28.9525 24.4795 28.9525C26.4996 28.9525 28.1397 30.7996 28.1069 33.0328C28.1069 35.2816 26.4996 37.1132 24.4795 37.1132ZM37.8929 37.1132C35.9039 37.1132 34.2654 35.2816 34.2654 33.0328C34.2654 30.7841 35.8728 28.9525 37.8929 28.9525C39.9129 28.9525 41.5531 30.7996 41.5202 33.0328C41.5202 35.2816 39.9284 37.1132 37.8929 37.1132Z" fill="#3C3C3B"/>
</svg>
