<svg width="63" height="63" viewBox="0 0 63 63" fill="none" xmlns="http://www.w3.org/2000/svg">
<path d="M31.0187 62.3935C29.3526 62.3935 27.6796 62.2602 26.0498 61.9954C18.8553 60.8338 12.2618 57.1256 7.4862 51.5548C2.65885 45.9233 3.05176e-05 38.7269 3.05176e-05 31.2898C3.05176e-05 14.1392 13.9158 0.187759 31.0187 0.187759C48.1216 0.187759 62.0391 14.1409 62.0391 31.2898C62.0391 38.8411 59.3077 46.1224 54.3457 51.7919C49.432 57.4095 42.6813 61.0675 35.3367 62.0941C33.9158 62.2931 32.4621 62.3935 31.0187 62.3935ZM31.0187 2.26515C15.057 2.26515 2.07186 15.2852 2.07186 31.2898C2.07186 45.6186 12.2945 57.6709 26.3795 59.9439C29.2196 60.4027 32.1927 60.4356 35.0501 60.0357C49.2542 58.0518 59.9655 45.693 59.9655 31.2898C59.9655 15.2852 46.9804 2.26515 31.017 2.26515H31.0187Z" fill="#3C3C3B"/>
<path d="M35.1934 25.3658V31.9147H43.2735L41.9942 40.7385H35.1934V61.0657C33.8294 61.2562 32.4344 61.3548 31.0186 61.3548C29.3836 61.3548 27.7797 61.2233 26.2155 60.9705V40.7385H18.7638V31.9147H26.2155V23.9029C26.2155 18.931 30.2348 14.8992 35.1951 14.8992V14.9043C35.2089 14.9043 35.2227 14.8992 35.2365 14.8992H43.2752V22.5284H38.0232C36.4607 22.5284 35.1951 23.7973 35.1951 25.364L35.1934 25.3658Z" fill="#3C3C3B"/>
</svg>
