<svg width="63" height="63" viewBox="0 0 63 63" fill="none" xmlns="http://www.w3.org/2000/svg">
<path d="M31.0578 62.3935C29.3917 62.3935 27.7187 62.2602 26.0888 61.9954C18.8944 60.8338 12.3008 57.1256 7.52527 51.5548C2.69792 45.9233 0.0390625 38.7269 0.0390625 31.2898C0.0390625 14.1392 13.9548 0.187759 31.0578 0.187759C48.1607 0.187759 62.0781 14.1409 62.0781 31.2898C62.0781 38.8411 59.3468 46.1224 54.3848 51.7919C49.4711 57.4095 42.7204 61.0675 35.3758 62.0941C33.9549 62.2931 32.5011 62.3935 31.0578 62.3935ZM31.0578 2.26515C15.0961 2.26515 2.11089 15.2852 2.11089 31.2898C2.11089 45.6186 12.3336 57.6709 26.4186 59.9439C29.2587 60.4027 32.2318 60.4356 35.0892 60.0357C49.2932 58.0518 60.0046 45.693 60.0046 31.2898C60.0046 15.2852 47.0194 2.26515 31.056 2.26515H31.0578Z" fill="#3C3C3B"/>
<path d="M40.4483 13.2442H21.6689C16.4807 13.2442 12.2611 17.4751 12.2611 22.6773V39.904C12.2611 45.1062 16.4807 49.3371 21.6689 49.3371H40.4483C45.6365 49.3371 49.8561 45.1062 49.8561 39.904V22.6773C49.8561 17.4751 45.6365 13.2442 40.4483 13.2442ZM15.5795 22.6773C15.5795 19.3102 18.3109 16.5715 21.6689 16.5715H40.4483C43.8064 16.5715 46.5377 19.3102 46.5377 22.6773V39.904C46.5377 43.2711 43.8064 46.0098 40.4483 46.0098H21.6689C18.3109 46.0098 15.5795 43.2711 15.5795 39.904V22.6773Z" fill="#3C3C3B"/>
<path d="M31.0578 40.065C35.8834 40.065 39.8095 36.1284 39.8095 31.2898C39.8095 26.4512 35.8834 22.5145 31.0578 22.5145C26.2322 22.5145 22.306 26.4512 22.306 31.2898C22.306 36.1284 26.2322 40.065 31.0578 40.065ZM31.0578 25.8436C34.0533 25.8436 36.4894 28.2862 36.4894 31.2898C36.4894 34.2934 34.0533 36.736 31.0578 36.736C28.0623 36.736 25.6261 34.2934 25.6261 31.2898C25.6261 28.2862 28.0623 25.8436 31.0578 25.8436Z" fill="#3C3C3B"/>
<path d="M40.621 23.9306C41.921 23.9306 42.9794 22.8694 42.9794 21.5659C42.9794 20.2623 41.921 19.2011 40.621 19.2011C39.3209 19.2011 38.2625 20.2623 38.2625 21.5659C38.2625 22.8694 39.3209 23.9306 40.621 23.9306Z" fill="#3C3C3B"/>
</svg>
