<svg width="63" height="63" viewBox="0 0 63 63" fill="none" xmlns="http://www.w3.org/2000/svg">
<path d="M31.1341 62.8051C29.4663 62.8051 27.795 62.6718 26.1652 62.4069C18.9708 61.2453 12.3772 57.5372 7.60165 51.9663C2.7743 46.3349 0.115479 39.1384 0.115479 31.7013C0.115479 14.5507 14.0312 0.599335 31.1341 0.599335C48.237 0.599335 62.1545 14.5525 62.1545 31.7013C62.1545 39.2527 59.4231 46.5339 54.4611 52.2035C49.5475 57.8211 42.7968 61.479 35.4522 62.5056C34.0312 62.7047 32.5775 62.8051 31.1341 62.8051ZM31.1341 2.67673C15.1725 2.67673 2.1873 15.6968 2.1873 31.7013C2.1873 46.0319 12.41 58.0825 26.495 60.3555C29.3334 60.8143 32.3082 60.8472 35.1656 60.4473C49.3697 58.4634 60.081 46.1046 60.081 31.7013C60.081 15.6968 47.0958 2.67673 31.1324 2.67673H31.1341Z" fill="#3C3C3B"/>
<path d="M15.7405 21.5481C14.9411 20.8037 14.5423 19.8827 14.5423 18.7869C14.5423 17.6911 14.9411 16.7286 15.7405 15.9842C16.5399 15.2398 17.5689 14.8676 18.8309 14.8676C20.093 14.8676 21.0806 15.2398 21.8783 15.9842C22.6777 16.7286 23.0765 17.6634 23.0765 18.7869C23.0765 19.9104 22.6777 20.8037 21.8783 21.5481C21.0789 22.2925 20.0637 22.6647 18.8309 22.6647C17.5982 22.6647 16.5399 22.2925 15.7405 21.5481ZM22.4031 25.8171V48.6286H15.2156V25.8171H22.4031Z" fill="#3C3C3B"/>
<path d="M46.3344 28.0694C47.9004 29.7746 48.6842 32.1168 48.6842 35.0979V48.227H41.8558V36.0241C41.8558 34.5214 41.4674 33.3529 40.6904 32.5202C39.9135 31.6875 38.8689 31.272 37.5568 31.272C36.2446 31.272 35.2001 31.6892 34.4232 32.5202C33.6462 33.3529 33.2578 34.5214 33.2578 36.0241V48.227H26.3896V25.7548H33.2578V28.7359C33.9535 27.7422 34.891 26.958 36.0703 26.3798C37.2477 25.8033 38.5737 25.5142 40.0464 25.5142C42.6708 25.5142 44.7667 26.3677 46.3327 28.0711L46.3344 28.0694Z" fill="#3C3C3B"/>
</svg>
