<svg width="63" height="63" viewBox="0 0 63 63" fill="none" xmlns="http://www.w3.org/2000/svg">
<path d="M31.1732 62.3935C29.5071 62.3935 27.8341 62.2602 26.2043 61.9954C19.0099 60.8338 12.4163 57.1256 7.64071 51.5548C2.81336 45.9233 0.154541 38.7269 0.154541 31.2898C0.154541 14.1392 14.0702 0.187759 31.1732 0.187759C48.2761 0.187759 62.1919 14.1409 62.1919 31.2898C62.1919 38.8411 59.4605 46.1224 54.4985 51.7919C49.5848 57.4095 42.8341 61.0675 35.4895 62.0941C34.0685 62.2931 32.6148 62.3935 31.1715 62.3935H31.1732ZM31.1732 2.26515C15.2115 2.26515 2.22637 15.2852 2.22637 31.2898C2.22637 45.6186 12.4491 57.6709 26.5341 59.9439C29.3742 60.4027 32.3472 60.4339 35.2046 60.0357C49.4087 58.0518 60.12 45.693 60.12 31.2898C60.12 15.2852 47.1348 2.26515 31.1732 2.26515Z" fill="#3C3C3B"/>
<path d="M48.896 20.2761C48.0638 21.1192 46.9104 21.6403 45.6328 21.6403C45.4705 21.6403 45.3083 21.6316 45.1512 21.6143C46.484 20.8128 47.513 19.5577 48.0258 18.0603C48.0258 18.0603 48.0275 18.0603 48.0275 18.0585C48.0983 17.8577 48.1587 17.6552 48.207 17.4457C47.1521 18.5761 45.7105 19.3413 44.0927 19.5231C43.8441 19.5525 43.5921 19.5664 43.3365 19.5664C43.2554 19.5664 43.1777 19.5646 43.1 19.5594C42.5527 18.983 41.9001 18.5069 41.1767 18.1572C40.3704 17.7625 39.4691 17.5305 38.5178 17.5011C38.4401 17.4959 38.3625 17.4942 38.2813 17.4942C37.475 17.4942 36.7015 17.6379 35.9868 17.9027C35.8038 17.9702 35.6259 18.0429 35.4515 18.1278C33.1863 19.1924 31.6186 21.5001 31.6186 24.1747C31.6186 24.7235 31.686 25.2567 31.8086 25.7657C31.1145 25.738 30.4274 25.6704 29.754 25.57C29.5382 25.5354 29.3223 25.4991 29.1083 25.4575C27.3904 25.1372 25.7519 24.5867 24.2291 23.8389C22.8669 23.1706 21.5962 22.3466 20.4412 21.3875C19.4691 20.5843 18.58 19.6875 17.7858 18.7077C17.7513 18.6662 17.7167 18.6229 17.6839 18.5813C17.6373 18.6523 17.5941 18.7233 17.5544 18.7977C16.9985 19.7724 16.6842 20.8994 16.6842 22.1008C16.6842 22.1371 16.6843 22.177 16.686 22.2133C16.6998 23.1135 16.8897 23.9704 17.2298 24.7495C17.3749 25.0957 17.5509 25.4229 17.7529 25.7328C18.3486 26.652 19.1618 27.4172 20.1217 27.9469C20.1649 27.9746 20.2098 27.9971 20.2547 28.0179C20.1856 28.0317 20.1148 28.0439 20.044 28.0508C19.8472 28.0767 19.6435 28.0906 19.4397 28.0906C18.4176 28.0906 17.4663 27.7703 16.6877 27.225C16.6825 27.2821 16.6825 27.341 16.6825 27.3999C16.6825 29.3076 17.4802 31.0284 18.7578 32.2419C19.7523 33.1941 21.0385 33.8329 22.4681 34.0198C21.9536 34.2085 21.3977 34.3107 20.8193 34.3107C20.1925 34.3107 19.5917 34.1912 19.0427 33.9714C19.861 36.6391 22.3006 38.5953 25.2081 38.6818C23.4315 40.5325 20.9367 41.6819 18.176 41.6819C16.4598 41.6819 14.8472 41.237 13.4488 40.458C16.8103 43.375 21.1939 45.1373 25.9885 45.1373C36.5841 45.1373 45.1718 36.5265 45.1718 25.9024C45.1718 25.3173 45.146 24.7391 45.0942 24.1678C46.8466 23.4736 48.2364 22.0558 48.8942 20.2779L48.896 20.2761Z" fill="#3C3C3B"/>
</svg>
