<svg width="63" height="63" viewBox="0 0 63 63" fill="none" xmlns="http://www.w3.org/2000/svg">
<path d="M31.0187 62.8051C29.3508 62.8051 27.6796 62.6718 26.0497 62.4069C18.8553 61.2453 12.2617 57.5372 7.48617 51.9663C2.65882 46.3349 0 39.1384 0 31.7013C0 14.5507 13.9157 0.599335 31.0187 0.599335C48.1216 0.599335 62.039 14.5525 62.039 31.7013C62.039 39.2527 59.3077 46.5339 54.3457 52.2035C49.432 57.8211 42.6813 61.479 35.3367 62.5056C33.9158 62.7047 32.462 62.8051 31.0187 62.8051ZM31.0187 2.67673C15.057 2.67673 2.07182 15.6968 2.07182 31.7013C2.07182 46.0319 12.2945 58.0825 26.3795 60.3555C29.2179 60.8143 32.1927 60.8472 35.0501 60.4473C49.2541 58.4634 59.9655 46.1046 59.9655 31.7013C59.9655 15.6968 46.9803 2.67673 31.0169 2.67673H31.0187Z" fill="#3C3C3B"/>
<path d="M36.5901 40.603C28.8225 40.6012 22.5017 34.2635 22.5 26.4767C22.5034 24.5032 24.104 22.8967 26.0705 22.8967C26.2725 22.8967 26.4727 22.914 26.6626 22.9486C27.0839 23.0179 27.4827 23.1615 27.8522 23.3762C27.9057 23.4074 27.942 23.4593 27.9506 23.5199L28.7707 28.7082C28.7811 28.7688 28.7621 28.8294 28.7224 28.8744C28.2683 29.3781 27.6899 29.74 27.0477 29.9217L26.7369 30.01L26.8543 30.3112C27.9143 33.0136 30.069 35.1758 32.7659 36.2387L33.0663 36.3564L33.1543 36.0448C33.3356 35.3991 33.6965 34.8192 34.1989 34.3656C34.2351 34.3327 34.2835 34.3137 34.3336 34.3137C34.3439 34.3137 34.356 34.3137 34.3664 34.3171L39.539 35.1394C39.6012 35.1498 39.6512 35.1845 39.684 35.2381C39.8964 35.6086 40.0397 36.0102 40.1105 36.4309C40.1433 36.6196 40.1606 36.8169 40.1606 37.0247C40.1606 38.9965 38.5584 40.6012 36.5901 40.6047V40.603Z" fill="#3C3C3B"/>
<path d="M50.3643 29.9927C49.9448 25.2458 47.7763 20.8435 44.2576 17.5976C40.7182 14.3309 36.124 12.5322 31.3208 12.5322C20.7787 12.5322 12.2013 21.1326 12.2013 31.7031C12.2013 35.2502 13.1768 38.7073 15.0241 41.7178L10.9047 50.8636L24.0987 49.4544C26.3933 50.3962 28.8225 50.8739 31.3208 50.8739C31.9786 50.8739 32.6519 50.8393 33.327 50.7701C33.9226 50.706 34.5235 50.6125 35.1157 50.4931C43.9451 48.7048 50.3902 40.8471 50.4403 31.8052V31.7031C50.4403 31.1266 50.4144 30.5519 50.3626 29.9944L50.3643 29.9927ZM24.6046 45.4398L17.3049 46.2189L19.4855 41.3768L19.0504 40.7899C19.0176 40.7467 18.9865 40.7034 18.9503 40.6549C17.058 38.0357 16.0583 34.9403 16.0583 31.7013C16.0583 23.2619 22.9057 16.3979 31.3208 16.3979C39.2058 16.3979 45.8874 22.566 46.5314 30.4393C46.566 30.8617 46.5832 31.2859 46.5832 31.7031C46.5832 31.8225 46.5815 31.9402 46.578 32.0649C46.4157 39.1246 41.4969 45.1196 34.6167 46.6465C34.0919 46.7642 33.5532 46.8525 33.0163 46.9113C32.4586 46.9754 31.8871 47.0065 31.3191 47.0065C29.2973 47.0065 27.3325 46.6136 25.4748 45.838C25.2693 45.7549 25.0673 45.6666 24.8774 45.5749L24.6012 45.4416L24.6046 45.4398Z" fill="#3C3C3B"/>
</svg>
