<svg width="63" height="63" viewBox="0 0 63 63" fill="none" xmlns="http://www.w3.org/2000/svg">
<path d="M31.0578 62.8051C29.3899 62.8051 27.7187 62.6718 26.0888 62.4069C18.8944 61.2453 12.3008 57.5372 7.52527 51.9663C2.69792 46.3349 0.0390625 39.1384 0.0390625 31.7013C0.0390625 14.5507 13.9548 0.599335 31.0578 0.599335C48.1607 0.599335 62.0781 14.5525 62.0781 31.7013C62.0781 39.2527 59.3468 46.5339 54.3848 52.2035C49.4711 57.8211 42.7204 61.479 35.3758 62.5056C33.9549 62.7047 32.5011 62.8051 31.0578 62.8051ZM31.0578 2.67673C15.0961 2.67673 2.11089 15.6968 2.11089 31.7013C2.11089 46.0319 12.3336 58.0825 26.4186 60.3555C29.257 60.8143 32.2318 60.8472 35.0892 60.4473C49.2932 58.4634 60.0046 46.1046 60.0046 31.7013C60.0046 15.6968 47.0194 2.67673 31.056 2.67673H31.0578Z" fill="#3C3C3B"/>
<path d="M50.1116 25.4173C49.8751 23.1114 49.3623 20.5648 47.477 19.2249C46.0146 18.1862 44.0947 18.1481 42.3026 18.1499C38.5129 18.1533 34.7232 18.1568 30.9335 18.1602C27.2888 18.1637 23.6441 18.1672 19.9994 18.1706C18.4766 18.1706 16.997 18.0529 15.5829 18.7125C14.3675 19.2803 13.4179 20.3588 12.8482 21.5585C12.054 23.2291 11.8865 25.1195 11.7915 26.9666C11.6154 30.3286 11.6344 33.7009 11.8468 37.0593C12.0004 39.5124 12.3923 42.2216 14.2829 43.7849C15.9593 45.1698 18.3247 45.2373 20.4966 45.2391C27.3958 45.2442 34.295 45.2494 41.1942 45.2564C42.0781 45.2564 43.0018 45.2408 43.9031 45.1421C45.6779 44.9499 47.3682 44.441 48.5077 43.1236C49.6575 41.7958 49.9528 39.9452 50.1289 38.195C50.5536 33.9501 50.5484 29.6603 50.1116 25.4173ZM26.9435 37.6566V25.7496L37.2284 31.7031L26.9435 37.6566Z" fill="#3C3C3B"/>
</svg>
