<svg width="41" height="42" viewBox="0 0 41 42" fill="none" xmlns="http://www.w3.org/2000/svg">
<path d="M24.5449 28.6048L30.8249 30.4937C33.1696 31.2113 34.9115 33.0923 35.4898 35.3816C35.7183 36.2869 34.9365 37.0548 33.9981 37.0548H6.64167C5.70317 37.0548 4.92135 36.2869 5.15 35.3816C5.72829 33.0923 7.4701 31.2113 9.81484 30.4937L16.0949 28.6048V24.9629C13.9236 24.6877 11.9212 24.2058 10.1799 23.562C11.0249 21.8992 11.8699 19.405 11.8699 13.5852C11.8699 3.60836 21.1649 3.60824 23.6999 6.93348C28.7699 6.10246 28.7699 10.2596 28.7699 15.248C28.7699 19.2387 29.8966 22.4536 30.4599 23.562C28.7185 24.2058 26.7162 24.6877 24.5449 24.9629V28.6048Z" stroke="white" stroke-width="1.2" stroke-linejoin="round"/>
</svg>
