<svg width="42" height="42" viewBox="0 0 42 42" fill="none" xmlns="http://www.w3.org/2000/svg">
<path d="M12.4314 8.3251C9.63137 8.3251 7.36145 10.595 7.36145 13.3951C7.36145 14.3561 7.62884 15.2547 8.09328 16.0205C5.75133 16.4684 3.98145 18.5276 3.98145 21.0001C3.98145 23.4726 5.75133 25.5317 8.09328 25.9797M12.4314 8.3251C12.4314 5.9917 14.323 4.1001 16.6564 4.1001C18.9898 4.1001 20.8814 5.9917 20.8814 8.3251V33.6751C20.8814 36.0085 18.9898 37.9001 16.6564 37.9001C14.323 37.9001 12.4314 36.0085 12.4314 33.6751C9.63137 33.6751 7.36145 31.4053 7.36145 28.6051C7.36145 27.644 7.62884 26.7454 8.09328 25.9797M12.4314 8.3251C12.4314 9.70737 13.0952 10.9346 14.1214 11.7054M8.09328 25.9797C8.69567 24.9865 9.62954 24.2165 10.7414 23.8236M33.1339 8.74719L29.3314 12.5497H25.9514M33.1339 33.2523L29.3314 29.4498H25.9514M33.1339 20.9998H25.9514M31.8664 8.74719C31.8664 9.44721 32.4339 10.0147 33.1339 10.0147C33.8339 10.0147 34.4014 9.44721 34.4014 8.74719C34.4014 8.04716 33.8339 7.47969 33.1339 7.47969C32.4339 7.47969 31.8664 8.04716 31.8664 8.74719ZM31.8664 33.2523C31.8664 32.5521 32.4339 31.9848 33.1339 31.9848C33.8339 31.9848 34.4014 32.5521 34.4014 33.2523C34.4014 33.9523 33.8339 34.5198 33.1339 34.5198C32.4339 34.5198 31.8664 33.9523 31.8664 33.2523ZM31.8664 20.9998C31.8664 21.6998 32.4339 22.2673 33.1339 22.2673C33.8339 22.2673 34.4014 21.6998 34.4014 20.9998C34.4014 20.2996 33.8339 19.7323 33.1339 19.7323C32.4339 19.7323 31.8664 20.2996 31.8664 20.9998Z" stroke="white" stroke-width="1.2" stroke-linecap="round" stroke-linejoin="round"/>
</svg>
