<svg width="41" height="42" viewBox="0 0 41 42" fill="none" xmlns="http://www.w3.org/2000/svg">
<path d="M29.5785 17.6202C29.591 17.62 29.6037 17.62 29.6164 17.62C33.8165 17.62 37.2214 21.0248 37.2214 25.225C37.2214 29.4251 33.8165 32.83 29.6164 32.83H11.8714C7.20459 32.83 3.42139 29.0467 3.42139 24.38C3.42139 19.9865 6.77431 16.3763 11.0609 15.9683M29.5785 17.6202C29.6035 17.3417 29.6164 17.0598 29.6164 16.775C29.6164 11.6415 25.4549 7.47998 20.3214 7.47998C15.4597 7.47998 11.4697 11.2125 11.0609 15.9683M29.5785 17.6202C29.4056 19.5373 28.6507 21.2866 27.4917 22.69M11.0609 15.9683C11.3276 15.943 11.598 15.93 11.8714 15.93C13.774 15.93 15.5298 16.5588 16.9422 17.62" stroke="white" stroke-width="1.2" stroke-linecap="round" stroke-linejoin="round"/>
</svg>
