<svg width="42" height="42" viewBox="0 0 42 42" fill="none" xmlns="http://www.w3.org/2000/svg">
<path d="M32.2193 6.62722C29.0213 5.03605 25.1079 4.1001 20.8814 4.1001C16.6549 4.1001 12.7415 5.03605 9.54345 6.62722C7.97516 7.40753 7.19102 7.79768 6.43121 9.02439C5.67139 10.2511 5.67139 11.4389 5.67139 13.8145V19.7108C5.67139 29.3157 13.348 34.656 17.7938 36.9432C19.0337 37.5812 19.6536 37.9001 20.8814 37.9001C22.1092 37.9001 22.7291 37.5812 23.9688 36.9432C28.4147 34.656 36.0914 29.3157 36.0914 19.7108V13.8145C36.0914 11.4389 36.0914 10.2511 35.3316 9.02439C34.5717 7.79767 33.7876 7.40753 32.2193 6.62722Z" stroke="white" stroke-width="1.2" stroke-linecap="round" stroke-linejoin="round"/>
<path d="M15.8115 20.1549C15.8115 20.1549 18.1909 20.5806 19.1915 23.5349C19.1915 23.5349 21.7265 18.4649 25.9515 16.7749" stroke="white" stroke-width="1.2" stroke-linecap="round" stroke-linejoin="round"/>
</svg>
