<svg width="148" height="148" viewBox="0 0 148 148" fill="none" xmlns="http://www.w3.org/2000/svg">
<path d="M147.482 62.073H133.022L146.384 56.5453L137.378 34.7639L123.98 40.2916L134.23 30.0415L117.574 13.3852L107.324 23.6352L112.851 10.2369L91.0699 1.23152L85.5422 14.5932V0.133301H61.967V14.5932L56.4393 1.23152L34.6579 10.2369L40.1856 23.6352L29.9356 13.3852L13.2792 30.0415L23.5293 40.2916L10.131 34.7639L1.12557 56.5453L14.4873 62.073H0.0273438V85.6481H14.4873L1.12557 91.1758L10.131 112.957L23.5293 107.43L13.2792 117.68L29.9356 134.336L40.1856 124.086L34.6579 137.484L56.4393 146.49L61.967 133.128V147.588H85.5422V133.128L91.0699 146.49L112.851 137.484L107.324 124.086L117.574 134.336L134.23 117.68L123.98 107.43L137.378 112.957L146.384 91.1758L133.022 85.6481H147.482V62.073Z" fill="white"/>
</svg>
