<svg width="133" height="133" viewBox="0 0 133 133" fill="none" xmlns="http://www.w3.org/2000/svg">
<path d="M123.591 79.6739C116.416 72.4988 116.416 60.8577 123.591 53.646C135.709 41.529 135.709 21.8342 123.591 9.71718C111.474 -2.39987 91.7797 -2.39987 79.6626 9.71718C72.4876 16.8922 60.8464 16.8922 53.6348 9.71718C41.5178 -2.39987 21.823 -2.39987 9.70595 9.71718C-2.4111 21.8342 -2.4111 41.529 9.70595 53.646C16.881 60.8211 16.881 72.4622 9.70595 79.6739C-2.4111 91.7909 -2.4111 111.486 9.70595 123.603C21.823 135.72 41.5178 135.72 53.6348 123.603C60.8098 116.428 72.451 116.428 79.6626 123.603C91.7797 135.72 111.474 135.72 123.591 123.603C135.709 111.486 135.709 91.8275 123.591 79.6739Z" fill="white"/>
</svg>
